<?xml version="1.0" encoding="utf-8"?>
<!-- Generator: Adobe Illustrator 25.3.0, SVG Export Plug-In . SVG Version: 6.00 Build 0)  -->
<svg version="1.1" id="Layer_1" xmlns="http://www.w3.org/2000/svg" xmlns:xlink="http://www.w3.org/1999/xlink" x="0px" y="0px"
	 viewBox="0 0 304.19 62.07" style="enable-background:new 0 0 304.19 62.07;" xml:space="preserve">
<style type="text/css">
	.st0{fill:#1D1D1B;}
	.st1{fill:none;stroke:#1D1D1B;stroke-miterlimit:10;}
	.st2{fill:#054F75;}
	.st3{fill:#00CFFF;}
	.st4{fill:#5CB030;}
	.st5{fill:#B1B1B1;}
	.st6{fill:#F08723;}
	.st7{fill:#FFFFFF;}
	.st8{fill:none;stroke:#FFFFFF;stroke-miterlimit:10;}
</style>
<rect x="-58.48" y="-418.57" class="st0" width="468.72" height="241.89"/>
<rect x="941.34" y="-418.57" class="st0" width="468.72" height="241.89"/>
<line class="st1" x1="-3084.15" y1="-1319.9" x2="-2038.15" y2="-1319.9"/>
<g>
	<g>
		<path class="st2" d="M-2618.23-1591.03c0-20.19,15.45-34.77,36.22-34.77c11.01,0,20.48,3.96,26.75,11.3l-8.11,7.63
			c-4.93-5.31-11.01-7.92-18.06-7.92c-14,0-24.15,9.85-24.15,23.76s10.14,23.76,24.15,23.76c7.05,0,13.14-2.61,18.06-8.02l8.11,7.73
			c-6.28,7.34-15.74,11.3-26.85,11.3C-2602.77-1556.25-2618.23-1570.84-2618.23-1591.03z"/>
		<path class="st2" d="M-2496.81-1587.45v30.23h-11.4v-6.28c-2.9,4.44-8.5,6.95-16.23,6.95c-11.78,0-19.22-6.47-19.22-15.45
			c0-8.6,5.79-15.36,21.44-15.36h13.33v-0.77c0-7.05-4.25-11.2-12.85-11.2c-5.8,0-11.78,1.93-15.65,5.12l-4.73-8.79
			c5.5-4.25,13.52-6.38,21.83-6.38C-2505.41-1609.38-2496.81-1602.33-2496.81-1587.45z M-2508.89-1573.35v-5.99h-12.46
			c-8.21,0-10.43,3.09-10.43,6.86c0,4.35,3.67,7.15,9.85,7.15C-2516.03-1565.33-2510.92-1568.04-2508.89-1573.35z"/>
		<path class="st2" d="M-2425.72-1586.78v29.56h-12.07v-28.01c0-9.18-4.54-13.62-12.27-13.62c-8.6,0-14.39,5.22-14.39,15.55v26.08
			h-12.07v-51.58h11.49v6.66c3.96-4.73,10.24-7.24,17.77-7.24C-2434.9-1609.38-2425.72-1602.33-2425.72-1586.78z"/>
		<path class="st2" d="M-2409.3-1583.01c0-15.45,11.59-26.37,27.43-26.37c16.03,0,27.53,10.91,27.53,26.37s-11.49,26.47-27.53,26.47
			C-2397.71-1556.54-2409.3-1567.55-2409.3-1583.01z M-2366.51-1583.01c0-9.85-6.57-16.13-15.36-16.13
			c-8.69,0-15.26,6.28-15.26,16.13s6.57,16.13,15.26,16.13C-2373.08-1566.88-2366.51-1573.16-2366.51-1583.01z"/>
		<path class="st2" d="M-2283.16-1583.01c0,16.03-11.11,26.47-26.18,26.47c-6.57,0-12.36-2.22-16.52-6.95v25.02h-12.07v-70.32h11.49
			v6.76c4.06-4.93,10.04-7.34,17.1-7.34C-2294.26-1609.38-2283.16-1598.95-2283.16-1583.01z M-2295.42-1583.01
			c0-9.85-6.57-16.13-15.26-16.13c-8.69,0-15.36,6.28-15.36,16.13s6.66,16.13,15.36,16.13
			C-2301.99-1566.88-2295.42-1573.16-2295.42-1583.01z"/>
		<path class="st2" d="M-2219.99-1608.8l-24.15,55.73c-4.73,11.69-11.3,15.26-19.9,15.26c-5.12,0-10.53-1.74-13.81-4.73l4.83-8.89
			c2.32,2.22,5.6,3.57,8.89,3.57c4.25,0,6.76-2.03,9.08-7.15l0.87-2.03l-22.5-51.77h12.56l16.23,38.15l16.32-38.15H-2219.99z"/>
	</g>
	<g>
		<path class="st2" d="M-2690.22-1623.94c-3.1-18.8-19.42-33.14-39.09-33.14c-16.46,0-30.57,10.03-36.56,24.32
			c-2.66-0.88-5.49-1.38-8.44-1.38c-14.76,0-26.72,11.97-26.72,26.73c0,1.7,0.18,3.35,0.48,4.96c-12,0.62-21.54,10.52-21.54,22.67
			c0,11.99,9.29,21.79,21.06,22.65v0.08h105.38c18.59,0,33.66-15.07,33.66-33.66C-2662-1607.46-2674.22-1621.34-2690.22-1623.94z"/>
		<g>
			<circle class="st3" cx="-2695.87" cy="-1594.89" r="33.88"/>
			<path class="st2" d="M-2695.87-1558.36c-20.15,0-36.54-16.39-36.54-36.54c0-20.15,16.39-36.54,36.54-36.54
				c20.15,0,36.54,16.39,36.54,36.54C-2659.34-1574.75-2675.73-1558.36-2695.87-1558.36z M-2695.87-1626.11
				c-17.21,0-31.21,14-31.21,31.21c0,17.21,14,31.21,31.21,31.21s31.21-14,31.21-31.21
				C-2664.66-1612.11-2678.66-1626.11-2695.87-1626.11z"/>
		</g>
		<g>
			<circle class="st2" cx="-2701.79" cy="-1603.94" r="11.01"/>
			<circle class="st2" cx="-2683.4" cy="-1580.17" r="8.33"/>
			<path class="st2" d="M-2681.79-1588.26c-5.38-1.01-9.45-5.71-9.45-11.38c0-0.75,0.08-1.48,0.21-2.19l-5.03-1.45l-5.98,7.79v2.62
				c5.87,0.58,10.45,5.53,10.45,11.55c0,0.24-0.02,0.46-0.04,0.7c0.92,0.01,1.84,0.35,2.49,1.01c0.03,0.03,0.15,0.13,0.23,0.2
				c0.03,0.02,0.07,0.04,0.11,0.06l7.79-6.52l0.07-0.19C-2681.46-1586.67-2681.74-1587.45-2681.79-1588.26z"/>
			<circle class="st3" cx="-2701.79" cy="-1603.94" r="5.91"/>
		</g>
	</g>
</g>
<g>
	<g>
		<g>
			<path class="st2" d="M-2613.4-1201.98c0-10.15,7.77-17.49,18.22-17.49c5.54,0,10.3,1.99,13.46,5.68l-4.08,3.84
				c-2.48-2.67-5.54-3.98-9.08-3.98c-7.04,0-12.15,4.96-12.15,11.95s5.1,11.95,12.15,11.95c3.55,0,6.61-1.31,9.08-4.03l4.08,3.89
				c-3.16,3.69-7.92,5.68-13.51,5.68C-2605.63-1184.49-2613.4-1191.83-2613.4-1201.98z"/>
			<path class="st2" d="M-2552.33-1200.18v15.21h-5.73v-3.16c-1.46,2.24-4.28,3.5-8.16,3.5c-5.93,0-9.67-3.25-9.67-7.77
				c0-4.32,2.92-7.72,10.79-7.72h6.71v-0.39c0-3.55-2.14-5.64-6.46-5.64c-2.92,0-5.93,0.97-7.87,2.58l-2.38-4.42
				c2.77-2.14,6.8-3.21,10.98-3.21C-2556.65-1211.21-2552.33-1207.67-2552.33-1200.18z M-2558.4-1193.09v-3.01h-6.27
				c-4.13,0-5.25,1.55-5.25,3.45c0,2.19,1.85,3.6,4.96,3.6C-2561.99-1189.06-2559.42-1190.42-2558.4-1193.09z"/>
			<path class="st2" d="M-2516.56-1199.84v14.87h-6.07v-14.09c0-4.62-2.28-6.85-6.17-6.85c-4.32,0-7.24,2.62-7.24,7.82v13.12h-6.07
				v-25.94h5.78v3.35c1.99-2.38,5.15-3.64,8.94-3.64C-2521.18-1211.21-2516.56-1207.67-2516.56-1199.84z"/>
			<path class="st2" d="M-2508.3-1197.95c0-7.77,5.83-13.26,13.8-13.26c8.06,0,13.85,5.49,13.85,13.26s-5.78,13.31-13.85,13.31
				C-2502.47-1184.64-2508.3-1190.18-2508.3-1197.95z M-2486.78-1197.95c0-4.96-3.3-8.11-7.72-8.11c-4.37,0-7.68,3.16-7.68,8.11
				c0,4.96,3.3,8.11,7.68,8.11C-2490.08-1189.84-2486.78-1192.99-2486.78-1197.95z"/>
			<path class="st2" d="M-2444.85-1197.95c0,8.06-5.59,13.31-13.17,13.31c-3.3,0-6.22-1.12-8.31-3.5v12.58h-6.07v-35.37h5.78v3.4
				c2.04-2.48,5.05-3.69,8.6-3.69C-2450.44-1211.21-2444.85-1205.97-2444.85-1197.95z M-2451.02-1197.95c0-4.96-3.3-8.11-7.68-8.11
				s-7.72,3.16-7.72,8.11c0,4.96,3.35,8.11,7.72,8.11S-2451.02-1192.99-2451.02-1197.95z"/>
			<path class="st2" d="M-2413.07-1210.92l-12.15,28.03c-2.38,5.88-5.68,7.68-10.01,7.68c-2.58,0-5.3-0.88-6.95-2.38l2.43-4.47
				c1.17,1.12,2.82,1.8,4.47,1.8c2.14,0,3.4-1.02,4.57-3.6l0.44-1.02l-11.32-26.04h6.32l8.16,19.19l8.21-19.19H-2413.07z"/>
		</g>
		<g>
			<path class="st4" d="M-2602.49-1162.35h-0.12l-7.65-11.22v16.98h-2.31v-21h2.4l7.65,11.46l7.65-11.46h2.4v21h-2.37v-17.01
				L-2602.49-1162.35z"/>
			<path class="st4" d="M-2580.21-1169.95c-0.75,0.21-1.48,0.49-2.21,0.83l-0.69-1.89c0.86-0.4,1.73-0.71,2.61-0.94
				c0.88-0.23,1.89-0.35,3.03-0.35c2.12,0,3.75,0.53,4.89,1.58c1.14,1.05,1.71,2.61,1.71,4.67v9.48h-2.22v-2.34
				c-0.54,0.7-1.26,1.32-2.17,1.86s-2.05,0.81-3.43,0.81c-0.72,0-1.43-0.1-2.12-0.3c-0.69-0.2-1.31-0.5-1.86-0.91
				s-0.99-0.92-1.32-1.52c-0.33-0.6-0.49-1.31-0.49-2.13c0-0.82,0.16-1.55,0.48-2.18c0.32-0.63,0.78-1.15,1.37-1.57
				c0.59-0.42,1.29-0.74,2.1-0.96c0.81-0.22,1.71-0.33,2.69-0.33c1,0,1.87,0.06,2.61,0.18c0.74,0.12,1.46,0.28,2.16,0.48v-0.54
				c0-1.4-0.41-2.45-1.21-3.17c-0.81-0.71-1.95-1.06-3.41-1.06C-2578.63-1170.27-2579.46-1170.16-2580.21-1169.95z
				 M-2580.95-1163.58c-0.78,0.58-1.17,1.37-1.17,2.37c0,0.5,0.11,0.94,0.31,1.32s0.49,0.7,0.85,0.97c0.36,0.27,0.77,0.48,1.24,0.62
				c0.47,0.14,0.96,0.21,1.48,0.21c0.72,0,1.39-0.1,2.02-0.31c0.63-0.21,1.18-0.5,1.64-0.87c0.47-0.37,0.84-0.81,1.11-1.32
				c0.27-0.51,0.4-1.08,0.4-1.7v-1.5c-0.58-0.16-1.24-0.31-1.99-0.45c-0.75-0.14-1.6-0.21-2.56-0.21
				C-2579.06-1164.45-2580.17-1164.16-2580.95-1163.58z"/>
			<path class="st4" d="M-2560.04-1156.59h-2.31v-15.51h2.31v2.7c0.52-0.84,1.2-1.55,2.04-2.15c0.84-0.59,1.93-0.88,3.27-0.88
				c0.94,0,1.78,0.15,2.51,0.45c0.73,0.3,1.35,0.73,1.86,1.27c0.51,0.55,0.9,1.21,1.17,1.97c0.27,0.76,0.4,1.6,0.4,2.52v9.63h-2.31
				v-9.06c0-1.44-0.37-2.58-1.11-3.42s-1.8-1.26-3.18-1.26c-0.66,0-1.28,0.12-1.84,0.35c-0.57,0.23-1.07,0.56-1.49,0.99
				s-0.74,0.94-0.97,1.54s-0.35,1.26-0.35,1.98V-1156.59z"/>
			<path class="st4" d="M-2537.16-1169.95c-0.75,0.21-1.48,0.49-2.2,0.83l-0.69-1.89c0.86-0.4,1.73-0.71,2.61-0.94
				c0.88-0.23,1.89-0.35,3.03-0.35c2.12,0,3.75,0.53,4.89,1.58c1.14,1.05,1.71,2.61,1.71,4.67v9.48h-2.22v-2.34
				c-0.54,0.7-1.26,1.32-2.17,1.86s-2.05,0.81-3.43,0.81c-0.72,0-1.42-0.1-2.12-0.3s-1.31-0.5-1.86-0.91s-0.99-0.92-1.32-1.52
				s-0.5-1.31-0.5-2.13c0-0.82,0.16-1.55,0.48-2.18c0.32-0.63,0.78-1.15,1.37-1.57c0.59-0.42,1.29-0.74,2.1-0.96
				c0.81-0.22,1.7-0.33,2.68-0.33c1,0,1.87,0.06,2.61,0.18c0.74,0.12,1.46,0.28,2.16,0.48v-0.54c0-1.4-0.4-2.45-1.21-3.17
				c-0.81-0.71-1.95-1.06-3.4-1.06C-2535.58-1170.27-2536.41-1170.16-2537.16-1169.95z M-2537.9-1163.58
				c-0.78,0.58-1.17,1.37-1.17,2.37c0,0.5,0.1,0.94,0.31,1.32s0.49,0.7,0.85,0.97c0.36,0.27,0.77,0.48,1.24,0.62
				c0.47,0.14,0.96,0.21,1.48,0.21c0.72,0,1.39-0.1,2.02-0.31s1.18-0.5,1.64-0.87c0.47-0.37,0.84-0.81,1.11-1.32
				c0.27-0.51,0.4-1.08,0.4-1.7v-1.5c-0.58-0.16-1.24-0.31-1.99-0.45c-0.75-0.14-1.6-0.21-2.56-0.21
				C-2536.01-1164.45-2537.12-1164.16-2537.9-1163.58z"/>
			<path class="st4" d="M-2505.09-1155.99c-0.37,0.94-0.9,1.73-1.59,2.35c-0.69,0.63-1.52,1.1-2.49,1.42
				c-0.97,0.32-2.05,0.48-3.25,0.48c-1.3,0-2.54-0.18-3.72-0.54c-1.18-0.36-2.29-0.9-3.33-1.62l1.05-1.8
				c0.9,0.64,1.84,1.13,2.82,1.47c0.98,0.34,2.03,0.51,3.15,0.51c1.72,0,3.09-0.46,4.11-1.4c1.02-0.93,1.53-2.3,1.53-4.12v-1.83
				c-0.68,0.9-1.51,1.67-2.49,2.31c-0.98,0.64-2.18,0.96-3.6,0.96c-0.94,0-1.84-0.17-2.71-0.49c-0.87-0.33-1.65-0.81-2.33-1.44
				c-0.68-0.63-1.22-1.4-1.63-2.3c-0.41-0.9-0.62-1.92-0.62-3.06c0-1.14,0.21-2.16,0.62-3.07c0.41-0.91,0.96-1.68,1.63-2.31
				s1.46-1.11,2.34-1.46c0.88-0.34,1.78-0.51,2.7-0.51c0.72,0,1.38,0.08,2,0.25s1.16,0.4,1.65,0.67c0.49,0.28,0.93,0.61,1.33,0.99
				c0.4,0.38,0.76,0.78,1.08,1.2v-2.79h2.31v12.81C-2504.54-1158.03-2504.72-1156.93-2505.09-1155.99z M-2507.24-1167.28
				c-0.32-0.65-0.75-1.21-1.27-1.67c-0.53-0.46-1.14-0.81-1.82-1.06s-1.39-0.38-2.13-0.38s-1.44,0.12-2.08,0.36
				c-0.65,0.24-1.22,0.59-1.71,1.05c-0.49,0.46-0.88,1.02-1.16,1.67c-0.28,0.65-0.42,1.38-0.42,2.18s0.15,1.52,0.44,2.17
				c0.29,0.65,0.68,1.21,1.17,1.68c0.49,0.47,1.06,0.83,1.71,1.08c0.65,0.25,1.33,0.38,2.05,0.38c0.74,0,1.45-0.12,2.13-0.38
				c0.68-0.25,1.29-0.6,1.82-1.06c0.53-0.46,0.96-1.01,1.27-1.67c0.32-0.65,0.48-1.37,0.48-2.17
				C-2506.76-1165.91-2506.92-1166.63-2507.24-1167.28z"/>
			<path class="st4" d="M-2493.77-1161.25c0.32,0.65,0.73,1.2,1.23,1.65c0.5,0.45,1.06,0.79,1.68,1.02
				c0.62,0.23,1.27,0.35,1.95,0.35c1.08,0,2-0.2,2.77-0.6c0.77-0.4,1.47-0.93,2.12-1.59l1.44,1.29c-0.78,0.88-1.67,1.58-2.67,2.11
				c-1,0.53-2.24,0.79-3.72,0.79c-1.06,0-2.06-0.19-3-0.58s-1.76-0.94-2.47-1.65c-0.71-0.71-1.26-1.56-1.68-2.56
				c-0.42-1-0.62-2.1-0.62-3.3c0-1.12,0.18-2.17,0.55-3.16c0.37-0.99,0.88-1.85,1.54-2.58s1.45-1.31,2.36-1.73
				c0.91-0.42,1.91-0.63,2.98-0.63c1.14,0,2.16,0.21,3.06,0.65c0.9,0.43,1.66,1.02,2.28,1.75c0.62,0.74,1.09,1.61,1.41,2.61
				c0.32,1,0.48,2.07,0.48,3.21c0,0.1,0,0.21,0,0.33s-0.01,0.25-0.03,0.39h-12.27C-2494.29-1162.65-2494.09-1161.9-2493.77-1161.25z
				 M-2484.44-1165.2c-0.06-0.7-0.2-1.37-0.43-2.01c-0.23-0.64-0.55-1.2-0.95-1.68s-0.9-0.87-1.49-1.16
				c-0.59-0.29-1.27-0.44-2.04-0.44c-0.68,0-1.3,0.14-1.88,0.41c-0.58,0.27-1.08,0.64-1.52,1.11c-0.44,0.47-0.8,1.03-1.07,1.67
				c-0.28,0.64-0.46,1.34-0.54,2.1H-2484.44z"/>
		</g>
	</g>
	<g>
		<path class="st2" d="M-2647.99-1219.88c-1.63-9.87-10.2-17.4-20.53-17.4c-8.64,0-16.05,5.27-19.2,12.77
			c-1.39-0.46-2.88-0.73-4.43-0.73c-7.75,0-14.04,6.28-14.04,14.04c0,0.89,0.09,1.76,0.25,2.6c-6.3,0.33-11.31,5.52-11.31,11.91
			c0,6.3,4.88,11.44,11.06,11.89v0.04h55.35c9.76,0,17.68-7.91,17.68-17.68C-2633.17-1211.23-2639.59-1218.52-2647.99-1219.88z"/>
		<g>
			<circle class="st4" cx="-2650.96" cy="-1204.63" r="17.79"/>
			<path class="st2" d="M-2650.96-1185.44c-10.58,0-19.19-8.61-19.19-19.19c0-10.58,8.61-19.19,19.19-19.19
				c10.58,0,19.19,8.61,19.19,19.19C-2631.77-1194.05-2640.38-1185.44-2650.96-1185.44z M-2650.96-1221.02
				c-9.04,0-16.39,7.35-16.39,16.39c0,9.04,7.35,16.39,16.39,16.39c9.04,0,16.39-7.35,16.39-16.39
				C-2634.57-1213.67-2641.92-1221.02-2650.96-1221.02z"/>
		</g>
		<g>
			<path class="st2" d="M-2639.94-1203.59l0.73-2.61l-0.92-0.41c0.04-0.4,0.04-0.81,0.01-1.2l0.94-0.39l-0.67-2.63l-1.01,0.11
				c-0.19-0.4-0.41-0.79-0.66-1.16l0.6-0.81l-1.93-1.91l-0.8,0.61c-0.3-0.2-0.61-0.38-0.94-0.55l0.13-1l-2.61-0.73l-0.41,0.92
				c-0.4-0.04-0.81-0.04-1.2-0.01l-0.39-0.94l-2.63,0.67l0.11,1.01c-0.4,0.19-0.79,0.41-1.16,0.66l-0.81-0.6l-1.91,1.93l0.61,0.8
				c-0.2,0.3-0.38,0.61-0.55,0.94l-1-0.13l-0.73,2.61l0.92,0.41c-0.04,0.4-0.04,0.81-0.01,1.2l-0.94,0.39l0.67,2.63l1.01-0.11
				c0.19,0.4,0.41,0.79,0.66,1.16l-0.6,0.81l1.93,1.91l0.8-0.61c0.3,0.2,0.61,0.38,0.94,0.55l-0.13,1l2.61,0.73l0.41-0.92
				c0.4,0.04,0.81,0.04,1.2,0.01l0.39,0.94l2.63-0.67l-0.11-1.01c0.4-0.19,0.79-0.41,1.16-0.66l0.81,0.6l1.91-1.93l-0.61-0.8
				c0.2-0.3,0.38-0.61,0.55-0.94L-2639.94-1203.59z M-2643.29-1205.94c-0.75,2.69-3.55,4.26-6.24,3.51
				c-2.69-0.75-4.26-3.55-3.51-6.24c0.75-2.69,3.55-4.26,6.24-3.51C-2644.11-1211.43-2642.54-1208.63-2643.29-1205.94z"/>
			<circle class="st2" cx="-2648.17" cy="-1207.31" r="2.61"/>
		</g>
		<path class="st2" d="M-2653.54-1196.47l0.01-0.83l-0.32-0.1c-0.04-0.25-0.1-0.48-0.19-0.71l0.22-0.23l-0.4-0.72l-0.36,0.08
			c-0.16-0.18-0.33-0.35-0.52-0.5l0.09-0.36l-0.71-0.42l-0.3,0.29c-0.19-0.06-0.39-0.11-0.6-0.14l-0.12-0.41l-0.83-0.01l-0.13,0.44
			c-0.2,0.04-0.38,0.1-0.57,0.17l-0.34-0.33l-0.72,0.4l0.12,0.51c-0.14,0.12-0.26,0.26-0.38,0.4l-0.51-0.13l-0.42,0.71l0.39,0.41
			c-0.05,0.15-0.1,0.3-0.12,0.46l-0.52,0.15l-0.01,0.83l0.53,0.16c0.03,0.17,0.08,0.33,0.13,0.48l-0.38,0.39l0.4,0.72l0.53-0.12
			c0.12,0.14,0.24,0.27,0.38,0.4l-0.12,0.5l0.71,0.42l0.35-0.33c0.17,0.07,0.35,0.13,0.54,0.17l0.12,0.43l0.83,0.01l0.13-0.42
			c0.22-0.03,0.42-0.08,0.62-0.15l0.29,0.28l0.72-0.4l-0.09-0.37c0.19-0.15,0.36-0.31,0.52-0.5l0.34,0.08l0.42-0.71l-0.23-0.24
			c0.09-0.22,0.14-0.45,0.18-0.68L-2653.54-1196.47z M-2657.04-1195.55c-0.74,0-1.35-0.6-1.35-1.35c0-0.74,0.6-1.35,1.35-1.35
			s1.35,0.6,1.35,1.35C-2655.7-1196.15-2656.3-1195.55-2657.04-1195.55z"/>
	</g>
</g>
<g>
	<g>
		<path class="st2" d="M-2243.85-1201.98c0-10.15,7.77-17.49,18.22-17.49c5.54,0,10.3,1.99,13.46,5.68l-4.08,3.84
			c-2.48-2.67-5.54-3.98-9.08-3.98c-7.04,0-12.15,4.96-12.15,11.95s5.1,11.95,12.15,11.95c3.55,0,6.61-1.31,9.08-4.03l4.08,3.89
			c-3.16,3.69-7.92,5.68-13.51,5.68C-2236.08-1184.49-2243.85-1191.83-2243.85-1201.98z"/>
		<path class="st2" d="M-2182.78-1200.18v15.21h-5.73v-3.16c-1.46,2.24-4.28,3.5-8.16,3.5c-5.93,0-9.67-3.25-9.67-7.77
			c0-4.32,2.92-7.72,10.79-7.72h6.71v-0.39c0-3.55-2.14-5.64-6.46-5.64c-2.92,0-5.93,0.97-7.87,2.58l-2.38-4.42
			c2.77-2.14,6.8-3.21,10.98-3.21C-2187.1-1211.21-2182.78-1207.67-2182.78-1200.18z M-2188.85-1193.09v-3.01h-6.27
			c-4.13,0-5.25,1.55-5.25,3.45c0,2.19,1.85,3.6,4.96,3.6C-2192.45-1189.06-2189.87-1190.42-2188.85-1193.09z"/>
		<path class="st2" d="M-2147.02-1199.84v14.87h-6.07v-14.09c0-4.62-2.28-6.85-6.17-6.85c-4.32,0-7.24,2.62-7.24,7.82v13.12h-6.07
			v-25.94h5.78v3.35c1.99-2.38,5.15-3.64,8.94-3.64C-2151.63-1211.21-2147.02-1207.67-2147.02-1199.84z"/>
		<path class="st2" d="M-2138.75-1197.95c0-7.77,5.83-13.26,13.8-13.26c8.07,0,13.85,5.49,13.85,13.26s-5.78,13.31-13.85,13.31
			C-2132.92-1184.64-2138.75-1190.18-2138.75-1197.95z M-2117.23-1197.95c0-4.96-3.3-8.11-7.73-8.11c-4.37,0-7.68,3.16-7.68,8.11
			c0,4.96,3.3,8.11,7.68,8.11C-2120.54-1189.84-2117.23-1192.99-2117.23-1197.95z"/>
		<path class="st2" d="M-2075.3-1197.95c0,8.06-5.59,13.31-13.17,13.31c-3.3,0-6.22-1.12-8.31-3.5v12.58h-6.07v-35.37h5.78v3.4
			c2.04-2.48,5.05-3.69,8.6-3.69C-2080.89-1211.21-2075.3-1205.97-2075.3-1197.95z M-2081.47-1197.95c0-4.96-3.3-8.11-7.68-8.11
			s-7.72,3.16-7.72,8.11c0,4.96,3.35,8.11,7.72,8.11S-2081.47-1192.99-2081.47-1197.95z"/>
		<path class="st2" d="M-2043.52-1210.92l-12.15,28.03c-2.38,5.88-5.68,7.68-10.01,7.68c-2.57,0-5.29-0.88-6.95-2.38l2.43-4.47
			c1.17,1.12,2.82,1.8,4.47,1.8c2.14,0,3.4-1.02,4.57-3.6l0.44-1.02l-11.32-26.04h6.32l8.16,19.19l8.21-19.19H-2043.52z"/>
	</g>
	<g>
		<path class="st5" d="M-2240.95-1171.01c0.16,0.4,0.45,0.77,0.87,1.1s1,0.63,1.74,0.9c0.74,0.27,1.69,0.53,2.85,0.77
			c2.34,0.52,4.07,1.24,5.17,2.16c1.11,0.92,1.67,2.19,1.67,3.82c0,0.9-0.18,1.72-0.53,2.46c-0.36,0.74-0.85,1.37-1.47,1.89
			c-0.62,0.52-1.38,0.92-2.26,1.2c-0.88,0.28-1.84,0.42-2.88,0.42c-1.68,0-3.22-0.27-4.61-0.81s-2.71-1.38-3.97-2.52l1.47-1.74
			c1.1,1,2.21,1.75,3.33,2.23c1.12,0.49,2.41,0.74,3.87,0.74c1.42,0,2.55-0.33,3.41-0.99c0.85-0.66,1.27-1.53,1.27-2.61
			c0-0.5-0.08-0.95-0.24-1.34c-0.16-0.39-0.44-0.75-0.84-1.07c-0.4-0.32-0.96-0.61-1.67-0.87c-0.71-0.26-1.62-0.51-2.72-0.75
			c-1.2-0.26-2.25-0.56-3.14-0.9c-0.89-0.34-1.63-0.75-2.21-1.23c-0.58-0.48-1.01-1.04-1.29-1.68c-0.28-0.64-0.42-1.4-0.42-2.28
			c0-0.84,0.17-1.61,0.51-2.31c0.34-0.7,0.82-1.31,1.44-1.82c0.62-0.51,1.35-0.91,2.19-1.2c0.84-0.29,1.76-0.44,2.76-0.44
			c1.54,0,2.88,0.21,4.04,0.64c1.15,0.42,2.26,1.06,3.34,1.91l-1.38,1.83c-0.98-0.8-1.96-1.38-2.96-1.74
			c-0.99-0.36-2.03-0.54-3.11-0.54c-0.68,0-1.29,0.09-1.84,0.27c-0.55,0.18-1.02,0.42-1.41,0.72c-0.39,0.3-0.69,0.66-0.9,1.08
			c-0.21,0.42-0.32,0.87-0.32,1.35C-2241.19-1171.86-2241.11-1171.41-2240.95-1171.01z"/>
		<path class="st5" d="M-2218.6-1161.25c0.32,0.65,0.73,1.2,1.23,1.65c0.5,0.45,1.06,0.79,1.68,1.02c0.62,0.23,1.27,0.35,1.95,0.35
			c1.08,0,2-0.2,2.77-0.6c0.77-0.4,1.47-0.93,2.12-1.59l1.44,1.29c-0.78,0.88-1.67,1.58-2.67,2.11c-1,0.53-2.24,0.79-3.72,0.79
			c-1.06,0-2.06-0.19-3-0.58s-1.76-0.94-2.47-1.65c-0.71-0.71-1.26-1.56-1.68-2.56c-0.42-1-0.62-2.1-0.62-3.3
			c0-1.12,0.18-2.17,0.55-3.16c0.37-0.99,0.88-1.85,1.54-2.58s1.45-1.31,2.36-1.73c0.91-0.42,1.91-0.63,2.98-0.63
			c1.14,0,2.16,0.21,3.06,0.65c0.9,0.43,1.66,1.02,2.28,1.75c0.62,0.74,1.09,1.61,1.41,2.61c0.32,1,0.48,2.07,0.48,3.21
			c0,0.1,0,0.21,0,0.33s-0.01,0.25-0.03,0.39h-12.27C-2219.12-1162.65-2218.92-1161.9-2218.6-1161.25z M-2209.27-1165.2
			c-0.06-0.7-0.2-1.37-0.43-2.01c-0.23-0.64-0.55-1.2-0.95-1.68s-0.9-0.87-1.49-1.16c-0.59-0.29-1.27-0.44-2.04-0.44
			c-0.68,0-1.3,0.14-1.88,0.41c-0.58,0.27-1.08,0.64-1.52,1.11c-0.44,0.47-0.8,1.03-1.07,1.67c-0.28,0.64-0.46,1.34-0.54,2.1
			H-2209.27z"/>
		<path class="st5" d="M-2188.59-1157.08c-0.99,0.57-2.22,0.85-3.67,0.85c-1.14,0-2.2-0.21-3.17-0.65
			c-0.97-0.43-1.81-1.01-2.52-1.74s-1.26-1.58-1.67-2.56s-0.6-2.02-0.6-3.12c0-1.1,0.2-2.15,0.6-3.14c0.4-0.99,0.96-1.85,1.67-2.59
			c0.71-0.74,1.55-1.32,2.52-1.75c0.97-0.43,2.02-0.65,3.17-0.65c0.74,0,1.41,0.07,2.01,0.21c0.6,0.14,1.15,0.33,1.65,0.58
			c0.5,0.25,0.96,0.54,1.38,0.88c0.42,0.34,0.81,0.7,1.17,1.08l-1.53,1.62c-0.62-0.64-1.29-1.19-2.03-1.65
			c-0.73-0.46-1.62-0.69-2.68-0.69c-0.78,0-1.51,0.15-2.19,0.46s-1.27,0.74-1.77,1.29s-0.89,1.19-1.17,1.92
			c-0.28,0.73-0.42,1.51-0.42,2.35c0,0.84,0.14,1.63,0.43,2.36s0.69,1.38,1.2,1.93s1.11,0.98,1.8,1.29
			c0.69,0.31,1.45,0.46,2.27,0.46c1,0,1.88-0.22,2.65-0.66s1.46-0.99,2.08-1.65l1.47,1.38
			C-2186.71-1158.37-2187.6-1157.65-2188.59-1157.08z"/>
		<path class="st5" d="M-2167.51-1172.1h2.28v15.51h-2.28v-2.7c-0.52,0.84-1.2,1.56-2.04,2.15c-0.84,0.59-1.93,0.89-3.27,0.89
			c-0.94,0-1.78-0.15-2.5-0.45c-0.73-0.3-1.35-0.72-1.86-1.27c-0.51-0.55-0.9-1.2-1.17-1.96c-0.27-0.76-0.41-1.6-0.41-2.52v-9.63
			h2.31v9.06c0,1.44,0.37,2.58,1.11,3.42c0.74,0.84,1.8,1.26,3.18,1.26c0.66,0,1.27-0.11,1.84-0.35c0.57-0.23,1.06-0.56,1.47-0.99
			c0.41-0.43,0.74-0.94,0.98-1.54c0.24-0.6,0.36-1.26,0.36-1.98V-1172.1z"/>
		<path class="st5" d="M-2154.13-1156.59h-2.31v-15.51h2.31v4.05c0.28-0.64,0.63-1.23,1.05-1.77c0.42-0.54,0.9-1,1.44-1.4
			s1.13-0.69,1.77-0.88c0.64-0.2,1.33-0.29,2.07-0.27v2.49h-0.18c-0.84,0-1.63,0.15-2.38,0.45c-0.75,0.3-1.41,0.75-1.96,1.35
			c-0.56,0.6-1,1.35-1.32,2.24c-0.32,0.89-0.48,1.92-0.48,3.07V-1156.59z"/>
		<path class="st5" d="M-2139.34-1161.25c0.32,0.65,0.73,1.2,1.23,1.65c0.5,0.45,1.06,0.79,1.68,1.02c0.62,0.23,1.27,0.35,1.95,0.35
			c1.08,0,2-0.2,2.77-0.6c0.77-0.4,1.47-0.93,2.12-1.59l1.44,1.29c-0.78,0.88-1.67,1.58-2.67,2.11c-1,0.53-2.24,0.79-3.72,0.79
			c-1.06,0-2.06-0.19-3-0.58s-1.76-0.94-2.47-1.65c-0.71-0.71-1.26-1.56-1.68-2.56c-0.42-1-0.62-2.1-0.62-3.3
			c0-1.12,0.18-2.17,0.55-3.16c0.37-0.99,0.88-1.85,1.54-2.58s1.45-1.31,2.36-1.73c0.91-0.42,1.91-0.63,2.98-0.63
			c1.14,0,2.16,0.21,3.06,0.65c0.9,0.43,1.66,1.02,2.28,1.75c0.62,0.74,1.09,1.61,1.41,2.61c0.32,1,0.48,2.07,0.48,3.21
			c0,0.1,0,0.21,0,0.33s-0.01,0.25-0.03,0.39h-12.27C-2139.86-1162.65-2139.66-1161.9-2139.34-1161.25z M-2130.01-1165.2
			c-0.06-0.7-0.2-1.37-0.43-2.01c-0.23-0.64-0.55-1.2-0.95-1.68s-0.9-0.87-1.49-1.16c-0.59-0.29-1.27-0.44-2.04-0.44
			c-0.68,0-1.3,0.14-1.88,0.41c-0.58,0.27-1.08,0.64-1.52,1.11c-0.44,0.47-0.8,1.03-1.07,1.67c-0.28,0.64-0.46,1.34-0.54,2.1
			H-2130.01z"/>
	</g>
</g>
<g>
	<path class="st2" d="M-2280.75-1219.88c-1.63-9.87-10.2-17.4-20.53-17.4c-8.64,0-16.05,5.27-19.2,12.77
		c-1.39-0.46-2.88-0.73-4.43-0.73c-7.75,0-14.04,6.28-14.04,14.04c0,0.89,0.09,1.76,0.25,2.6c-6.3,0.33-11.31,5.52-11.31,11.91
		c0,6.3,4.88,11.44,11.06,11.89v0.04h55.35c9.76,0,17.68-7.91,17.68-17.68C-2265.92-1211.23-2272.34-1218.52-2280.75-1219.88z"/>
	<g>
		<circle class="st5" cx="-2283.71" cy="-1204.63" r="17.79"/>
		<path class="st2" d="M-2283.71-1185.44c-10.58,0-19.19-8.61-19.19-19.19c0-10.58,8.61-19.19,19.19-19.19
			c10.58,0,19.19,8.61,19.19,19.19C-2264.53-1194.05-2273.13-1185.44-2283.71-1185.44z M-2283.71-1221.02
			c-9.04,0-16.39,7.35-16.39,16.39c0,9.04,7.35,16.39,16.39,16.39c9.04,0,16.39-7.35,16.39-16.39
			C-2267.32-1213.67-2274.68-1221.02-2283.71-1221.02z"/>
	</g>
	<g>
		<path class="st5" d="M-2282.9-1214.89h-1.47c-2.13,0-3.88,1.74-3.88,3.88v5.64c0,2.13,1.74,3.88,3.88,3.88h1.47
			c2.13,0,3.88-1.74,3.88-3.88v-5.64C-2279.03-1213.15-2280.77-1214.89-2282.9-1214.89z"/>
		<path class="st2" d="M-2282.64-1200.57h-2c-2.5,0-4.54-2.04-4.54-4.54v-6.17c0-2.5,2.04-4.54,4.54-4.54h2
			c2.5,0,4.54,2.04,4.54,4.54v6.17C-2278.1-1202.61-2280.13-1200.57-2282.64-1200.57z M-2284.64-1213.96c-1.48,0-2.68,1.2-2.68,2.68
			v6.17c0,1.48,1.2,2.68,2.68,2.68h2c1.48,0,2.68-1.2,2.68-2.68v-6.17c0-1.48-1.2-2.68-2.68-2.68H-2284.64z"/>
	</g>
	<g>
		<rect x="-2289.59" y="-1207.9" class="st5" width="11.75" height="11.75"/>
		<path class="st2" d="M-2276.91-1195.22h-13.62v-13.62h13.62V-1195.22z M-2288.66-1197.08h9.89v-9.89h-9.89V-1197.08z"/>
	</g>
</g>
<g>
	<g>
		<g>
			<path class="st2" d="M-2980.17-1201.99c0-10.04,7.68-17.29,18.01-17.29c5.47,0,10.18,1.97,13.3,5.62l-4.03,3.79
				c-2.45-2.64-5.47-3.94-8.98-3.94c-6.96,0-12,4.9-12,11.81c0,6.91,5.04,11.81,12,11.81c3.51,0,6.53-1.3,8.98-3.99l4.03,3.84
				c-3.12,3.65-7.83,5.62-13.35,5.62C-2972.49-1184.7-2980.17-1191.95-2980.17-1201.99z"/>
			<path class="st2" d="M-2919.81-1200.21v15.03h-5.67v-3.12c-1.44,2.21-4.23,3.46-8.07,3.46c-5.86,0-9.56-3.22-9.56-7.68
				c0-4.27,2.88-7.63,10.66-7.63h6.63v-0.38c0-3.51-2.11-5.57-6.39-5.57c-2.88,0-5.86,0.96-7.78,2.54l-2.35-4.37
				c2.74-2.11,6.72-3.17,10.85-3.17C-2924.09-1211.11-2919.81-1207.61-2919.81-1200.21z M-2925.82-1193.2v-2.98h-6.19
				c-4.08,0-5.19,1.54-5.19,3.41c0,2.16,1.82,3.55,4.9,3.55C-2929.37-1189.21-2926.82-1190.56-2925.82-1193.2z"/>
			<path class="st2" d="M-2884.48-1199.87v14.69h-6v-13.93c0-4.56-2.26-6.77-6.1-6.77c-4.27,0-7.15,2.59-7.15,7.73v12.97h-6v-25.64
				h5.71v3.31c1.97-2.35,5.09-3.6,8.84-3.6C-2889.04-1211.11-2884.48-1207.61-2884.48-1199.87z"/>
			<path class="st2" d="M-2876.32-1198c0-7.68,5.76-13.11,13.64-13.11c7.97,0,13.69,5.43,13.69,13.11s-5.71,13.16-13.69,13.16
				C-2870.56-1184.84-2876.32-1190.32-2876.32-1198z M-2855.04-1198c0-4.9-3.27-8.02-7.63-8.02c-4.32,0-7.59,3.12-7.59,8.02
				s3.27,8.02,7.59,8.02C-2858.31-1189.98-2855.04-1193.1-2855.04-1198z"/>
			<path class="st2" d="M-2813.61-1198c0,7.97-5.52,13.16-13.01,13.16c-3.27,0-6.15-1.1-8.21-3.46v12.44h-6v-34.96h5.71v3.36
				c2.02-2.45,4.99-3.65,8.5-3.65C-2819.13-1211.11-2813.61-1205.92-2813.61-1198z M-2819.71-1198c0-4.9-3.27-8.02-7.59-8.02
				s-7.64,3.12-7.64,8.02s3.31,8.02,7.64,8.02S-2819.71-1193.1-2819.71-1198z"/>
			<path class="st2" d="M-2782.21-1210.82l-12,27.71c-2.35,5.81-5.62,7.59-9.89,7.59c-2.54,0-5.23-0.86-6.87-2.35l2.4-4.42
				c1.15,1.1,2.79,1.78,4.42,1.78c2.11,0,3.36-1.01,4.51-3.55l0.43-1.01l-11.19-25.74h6.24l8.07,18.97l8.12-18.97H-2782.21z"/>
		</g>
		<g>
			<path class="st6" d="M-2971.39-1157.12h-2.37v-18.81h-7.05v-2.19h16.47v2.19h-7.05V-1157.12z"/>
			<path class="st6" d="M-2945.88-1161.76c-0.41,0.99-0.97,1.85-1.69,2.59c-0.72,0.74-1.58,1.33-2.58,1.75
				c-1,0.43-2.08,0.65-3.24,0.65c-1.16,0-2.23-0.21-3.21-0.65c-0.98-0.43-1.83-1.01-2.55-1.74c-0.72-0.73-1.28-1.58-1.68-2.56
				c-0.4-0.98-0.6-2.02-0.6-3.12c0-1.1,0.2-2.15,0.6-3.14c0.4-0.99,0.96-1.85,1.68-2.59c0.72-0.74,1.58-1.32,2.56-1.75
				c0.99-0.43,2.07-0.65,3.26-0.65c1.16,0,2.23,0.21,3.22,0.65c0.99,0.43,1.85,1.01,2.56,1.74c0.72,0.73,1.28,1.59,1.68,2.56
				c0.4,0.98,0.6,2.02,0.6,3.12C-2945.26-1163.79-2945.47-1162.75-2945.88-1161.76z M-2948.06-1167.21
				c-0.29-0.74-0.69-1.38-1.21-1.93c-0.52-0.55-1.13-0.98-1.83-1.3c-0.7-0.32-1.46-0.48-2.28-0.48c-0.84,0-1.61,0.15-2.31,0.46
				c-0.7,0.31-1.3,0.74-1.79,1.29c-0.49,0.55-0.88,1.19-1.15,1.92c-0.28,0.73-0.42,1.51-0.42,2.35c0,0.84,0.14,1.63,0.43,2.36
				s0.69,1.38,1.2,1.92s1.11,0.97,1.81,1.29c0.7,0.32,1.46,0.48,2.28,0.48c0.84,0,1.61-0.15,2.31-0.46s1.3-0.73,1.8-1.27
				c0.5-0.54,0.89-1.17,1.17-1.9c0.28-0.73,0.42-1.51,0.42-2.35C-2947.63-1165.69-2947.77-1166.48-2948.06-1167.21z"/>
			<path class="st6" d="M-2922.9-1161.76c-0.41,0.99-0.97,1.85-1.69,2.59c-0.72,0.74-1.58,1.33-2.58,1.75
				c-1,0.43-2.08,0.65-3.24,0.65c-1.16,0-2.23-0.21-3.21-0.65c-0.98-0.43-1.83-1.01-2.55-1.74c-0.72-0.73-1.28-1.58-1.68-2.56
				c-0.4-0.98-0.6-2.02-0.6-3.12c0-1.1,0.2-2.15,0.6-3.14c0.4-0.99,0.96-1.85,1.68-2.59c0.72-0.74,1.58-1.32,2.56-1.75
				c0.99-0.43,2.07-0.65,3.26-0.65c1.16,0,2.23,0.21,3.22,0.65c0.99,0.43,1.85,1.01,2.56,1.74c0.72,0.73,1.28,1.59,1.68,2.56
				c0.4,0.98,0.6,2.02,0.6,3.12C-2922.28-1163.79-2922.49-1162.75-2922.9-1161.76z M-2925.08-1167.21
				c-0.29-0.74-0.69-1.38-1.21-1.93c-0.52-0.55-1.13-0.98-1.83-1.3c-0.7-0.32-1.46-0.48-2.28-0.48c-0.84,0-1.61,0.15-2.31,0.46
				c-0.7,0.31-1.3,0.74-1.79,1.29c-0.49,0.55-0.88,1.19-1.15,1.92c-0.28,0.73-0.42,1.51-0.42,2.35c0,0.84,0.14,1.63,0.43,2.36
				s0.69,1.38,1.2,1.92s1.11,0.97,1.81,1.29c0.7,0.32,1.46,0.48,2.28,0.48c0.84,0,1.61-0.15,2.31-0.46s1.3-0.73,1.8-1.27
				c0.5-0.54,0.89-1.17,1.17-1.9c0.28-0.73,0.42-1.51,0.42-2.35C-2924.65-1165.69-2924.79-1166.48-2925.08-1167.21z"/>
			<path class="st6" d="M-2914.3-1157.12v-21.9h2.31v21.9H-2914.3z"/>
			<path class="st6" d="M-2892.81-1159.51c-0.29,0.57-0.68,1.05-1.17,1.45c-0.49,0.4-1.07,0.71-1.74,0.92s-1.39,0.31-2.17,0.31
				c-1.12,0-2.25-0.21-3.39-0.61c-1.14-0.41-2.15-0.96-3.03-1.67l1.17-1.65c0.84,0.64,1.71,1.13,2.62,1.47
				c0.91,0.34,1.82,0.51,2.75,0.51c0.94,0,1.71-0.22,2.31-0.66c0.6-0.44,0.9-1.04,0.9-1.8v-0.06c0-0.38-0.1-0.71-0.31-0.99
				c-0.21-0.28-0.5-0.52-0.85-0.73c-0.36-0.21-0.78-0.39-1.25-0.56c-0.47-0.16-0.96-0.31-1.46-0.45c-0.6-0.18-1.21-0.38-1.81-0.58
				c-0.61-0.21-1.16-0.48-1.65-0.79c-0.49-0.32-0.89-0.72-1.2-1.2s-0.46-1.08-0.46-1.8v-0.06c0-0.66,0.13-1.26,0.39-1.81
				c0.26-0.55,0.62-1.02,1.09-1.41c0.47-0.39,1.03-0.69,1.68-0.9c0.65-0.21,1.35-0.31,2.11-0.31c0.96,0,1.93,0.15,2.91,0.46
				c0.98,0.31,1.87,0.73,2.67,1.25l-1.05,1.74c-0.72-0.46-1.48-0.82-2.27-1.09s-1.56-0.41-2.33-0.41c-0.92,0-1.65,0.22-2.19,0.65
				c-0.54,0.43-0.81,0.97-0.81,1.6v0.06c0,0.36,0.11,0.67,0.33,0.94s0.51,0.51,0.89,0.71c0.37,0.2,0.79,0.38,1.27,0.54
				c0.48,0.16,0.98,0.32,1.5,0.48c0.6,0.18,1.19,0.38,1.79,0.6c0.59,0.22,1.12,0.5,1.6,0.84c0.48,0.34,0.86,0.75,1.15,1.23
				c0.29,0.48,0.44,1.07,0.44,1.77v0.06C-2892.37-1160.73-2892.52-1160.08-2892.81-1159.51z"/>
		</g>
	</g>
	<g>
		<path class="st2" d="M-3016.18-1219.74c-1.61-9.76-10.08-17.2-20.29-17.2c-8.54,0-15.86,5.21-18.97,12.62
			c-1.38-0.46-2.85-0.72-4.38-0.72c-7.66,0-13.87,6.21-13.87,13.87c0,0.88,0.09,1.74,0.25,2.57c-6.23,0.32-11.18,5.46-11.18,11.76
			c0,6.22,4.82,11.31,10.93,11.75v0.04h54.69c9.65,0,17.47-7.82,17.47-17.47C-3001.54-1211.19-3007.88-1218.4-3016.18-1219.74z"/>
		<g>
			<circle class="st6" cx="-3019.12" cy="-1204.67" r="17.58"/>
			<path class="st2" d="M-3019.12-1185.71c-10.46,0-18.96-8.51-18.96-18.96c0-10.46,8.51-18.96,18.96-18.96s18.96,8.51,18.96,18.96
				C-3000.15-1194.22-3008.66-1185.71-3019.12-1185.71z M-3019.12-1220.87c-8.93,0-16.2,7.27-16.2,16.2s7.27,16.2,16.2,16.2
				s16.2-7.27,16.2-16.2S-3010.18-1220.87-3019.12-1220.87z"/>
		</g>
		<path class="st2" d="M-3013.49-1207.23c2.46,0,4.45-2,4.45-4.45s-2-4.45-4.45-4.45s-4.45,2-4.45,4.45c0,0.59,0.12,1.16,0.33,1.67
			l-5.95,4.79c-0.56-0.35-1.21-0.55-1.92-0.55c-2.03,0-3.69,1.65-3.69,3.69c0,2.03,1.65,3.69,3.69,3.69c0.67,0,1.3-0.2,1.84-0.51
			l5.15,3.56c-0.03,0.15-0.05,0.31-0.05,0.47c0,1.54,1.26,2.8,2.8,2.8s2.8-1.26,2.8-2.8c0-1.54-1.26-2.8-2.8-2.8
			c-0.57,0-1.1,0.17-1.55,0.47l-4.84-3.35c0.21-0.46,0.34-0.98,0.34-1.52c0-0.52-0.11-1.01-0.31-1.46l5.83-4.69
			C-3015.51-1207.62-3014.55-1207.23-3013.49-1207.23z M-3013.49-1213.92c1.23,0,2.24,1,2.24,2.24s-1,2.24-2.24,2.24
			s-2.24-1-2.24-2.24S-3014.72-1213.92-3013.49-1213.92z M-3025.48-1200.62c-0.81,0-1.47-0.66-1.47-1.47s0.66-1.47,1.47-1.47
			s1.47,0.66,1.47,1.47S-3024.67-1200.62-3025.48-1200.62z M-3015.74-1195.48c0.32,0,0.58,0.26,0.58,0.58s-0.26,0.58-0.58,0.58
			s-0.58-0.26-0.58-0.58S-3016.06-1195.48-3015.74-1195.48z"/>
	</g>
</g>
<g>
	<g>
		<path class="st7" d="M103.86,35.3c0-10.15,7.77-17.49,18.22-17.49c5.54,0,10.3,1.99,13.46,5.68l-4.08,3.84
			c-2.48-2.67-5.54-3.98-9.09-3.98c-7.04,0-12.15,4.96-12.15,11.95s5.1,11.95,12.15,11.95c3.55,0,6.61-1.31,9.09-4.03l4.08,3.89
			c-3.16,3.69-7.92,5.68-13.51,5.68C111.63,52.79,103.86,45.46,103.86,35.3z"/>
		<path class="st7" d="M164.93,37.1v15.21h-5.73v-3.16c-1.46,2.24-4.28,3.5-8.16,3.5c-5.93,0-9.67-3.25-9.67-7.77
			c0-4.32,2.92-7.72,10.79-7.72h6.71v-0.39c0-3.55-2.14-5.64-6.46-5.64c-2.91,0-5.93,0.97-7.87,2.58l-2.38-4.42
			c2.77-2.14,6.8-3.21,10.98-3.21C160.61,26.07,164.93,29.62,164.93,37.1z M158.86,44.2v-3.01h-6.27c-4.13,0-5.25,1.55-5.25,3.45
			c0,2.19,1.85,3.6,4.96,3.6C155.26,48.23,157.84,46.87,158.86,44.2z"/>
		<path class="st7" d="M200.69,37.44v14.87h-6.07V38.22c0-4.62-2.28-6.85-6.17-6.85c-4.32,0-7.24,2.62-7.24,7.82v13.12h-6.07V26.36
			h5.78v3.35c1.99-2.38,5.15-3.64,8.94-3.64C196.08,26.07,200.69,29.62,200.69,37.44z"/>
		<path class="st7" d="M208.95,39.34c0-7.77,5.83-13.26,13.8-13.26c8.06,0,13.85,5.49,13.85,13.26s-5.78,13.31-13.85,13.31
			C214.78,52.65,208.95,47.11,208.95,39.34z M230.48,39.34c0-4.96-3.3-8.11-7.72-8.11c-4.37,0-7.68,3.16-7.68,8.11
			c0,4.96,3.3,8.11,7.68,8.11C227.17,47.45,230.48,44.29,230.48,39.34z"/>
		<path class="st7" d="M272.41,39.34c0,8.06-5.59,13.31-13.17,13.31c-3.3,0-6.22-1.12-8.31-3.5v12.58h-6.07V26.36h5.78v3.4
			c2.04-2.48,5.05-3.69,8.6-3.69C266.82,26.07,272.41,31.32,272.41,39.34z M266.24,39.34c0-4.96-3.3-8.11-7.68-8.11
			c-4.37,0-7.72,3.16-7.72,8.11c0,4.96,3.35,8.11,7.72,8.11C262.93,47.45,266.24,44.29,266.24,39.34z"/>
		<path class="st7" d="M304.19,26.36L292.04,54.4c-2.38,5.88-5.69,7.68-10.01,7.68c-2.58,0-5.3-0.88-6.95-2.38l2.43-4.47
			c1.17,1.12,2.82,1.8,4.47,1.8c2.14,0,3.4-1.02,4.57-3.6l0.44-1.02l-11.32-26.04h6.32l8.16,19.19l8.21-19.19H304.19z"/>
	</g>
	<g>
		<path class="st7" d="M85.48,32.66c0-9.93-7.58-18.12-17.26-19.09C65.28,5.65,57.67,0,48.73,0c-8.64,0-16.05,5.27-19.2,12.77
			c-1.39-0.46-2.88-0.73-4.43-0.73c-7.75,0-14.04,6.28-14.04,14.04c0,0.89,0.09,1.76,0.25,2.6C5.01,29.01,0,34.21,0,40.59
			c0,6.3,4.88,11.44,11.06,11.89v0.04h55.35c5.71,0,10.77-2.72,14-6.91C83.55,42.2,85.48,37.65,85.48,32.66z M82.69,32.66
			c0,9.04-7.35,16.39-16.39,16.39S49.9,41.7,49.9,32.66c0-9.04,7.35-16.39,16.39-16.39S82.69,23.62,82.69,32.66z"/>
		<path class="st7" d="M65.68,22.68c-0.4,0.19-0.79,0.41-1.16,0.66l-0.81-0.6l-1.91,1.93l0.61,0.81c-0.2,0.3-0.38,0.61-0.55,0.94
			l-1-0.13l-0.73,2.61l0.92,0.41c-0.04,0.4-0.04,0.81-0.01,1.2l-0.94,0.39l0.67,2.63l1.01-0.11c0.19,0.4,0.41,0.79,0.66,1.16
			l-0.6,0.81l1.93,1.91l0.8-0.61c0.3,0.2,0.61,0.38,0.94,0.55l-0.13,1l2.61,0.73l0.41-0.92c0.4,0.04,0.81,0.04,1.2,0.01l0.39,0.94
			l2.63-0.67l-0.11-1.01c0.4-0.19,0.79-0.41,1.16-0.66l0.81,0.6l1.91-1.93l-0.61-0.8c0.2-0.3,0.38-0.61,0.55-0.94l1,0.13l0.73-2.61
			l-0.92-0.41c0.04-0.4,0.04-0.81,0.01-1.2l0.94-0.39l-0.67-2.63l-1.01,0.11c-0.19-0.4-0.41-0.79-0.66-1.16l0.6-0.81l-1.93-1.91
			l-0.8,0.61c-0.3-0.2-0.61-0.38-0.94-0.55l0.13-1l-2.61-0.73l-0.41,0.92c-0.4-0.04-0.81-0.04-1.2-0.01L68.2,21l-2.63,0.67
			L65.68,22.68z M70.46,25.1c2.69,0.75,4.26,3.55,3.51,6.24s-3.55,4.26-6.24,3.51c-2.69-0.75-4.26-3.55-3.51-6.24
			C64.97,25.92,67.76,24.35,70.46,25.1z"/>
		<path class="st7" d="M68.39,32.49c1.39,0.39,2.82-0.42,3.21-1.81s-0.42-2.82-1.81-3.21s-2.82,0.42-3.21,1.81S67,32.1,68.39,32.49z
			"/>
		<path class="st7" d="M63.22,39.18l0.23-0.23l-0.4-0.72l-0.36,0.08c-0.16-0.18-0.33-0.35-0.52-0.5l0.09-0.36l-0.71-0.42l-0.3,0.29
			c-0.19-0.06-0.39-0.11-0.6-0.14l-0.12-0.41l-0.83-0.01l-0.13,0.44c-0.2,0.04-0.38,0.1-0.57,0.17l-0.34-0.33l-0.72,0.4l0.12,0.51
			c-0.14,0.12-0.26,0.26-0.38,0.4l-0.51-0.13l-0.42,0.71l0.39,0.41c-0.05,0.15-0.1,0.3-0.12,0.46l-0.52,0.15l-0.01,0.83l0.54,0.16
			c0.03,0.17,0.08,0.33,0.13,0.48l-0.38,0.39l0.4,0.72l0.53-0.12c0.12,0.14,0.24,0.27,0.38,0.4l-0.12,0.5l0.71,0.42l0.35-0.33
			c0.17,0.07,0.35,0.13,0.54,0.17l0.12,0.43l0.83,0.01l0.13-0.42c0.22-0.03,0.42-0.08,0.62-0.15l0.29,0.28l0.72-0.4l-0.09-0.37
			c0.19-0.15,0.36-0.31,0.52-0.5l0.34,0.08l0.42-0.71l-0.23-0.24c0.09-0.22,0.14-0.45,0.18-0.68l0.31-0.09l0.01-0.83l-0.32-0.1
			C63.37,39.65,63.31,39.41,63.22,39.18z M60.21,41.74c-0.74,0-1.35-0.6-1.35-1.35s0.6-1.35,1.35-1.35c0.74,0,1.35,0.6,1.35,1.35
			S60.95,41.74,60.21,41.74z"/>
	</g>
</g>
<rect x="-1869.79" y="-1018.57" class="st0" width="1190.55" height="841.89"/>
<line class="st8" x1="-1804.34" y1="-418.57" x2="-758.34" y2="-418.57"/>
<g>
	<g>
		<path class="st7" d="M-1338.42-689.7c0-20.19,15.45-34.77,36.22-34.77c11.01,0,20.48,3.96,26.75,11.3l-8.11,7.63
			c-4.93-5.31-11.01-7.92-18.06-7.92c-14,0-24.15,9.85-24.15,23.76s10.14,23.76,24.15,23.76c7.05,0,13.14-2.61,18.06-8.02l8.11,7.73
			c-6.28,7.34-15.74,11.3-26.85,11.3C-1322.96-654.93-1338.42-669.51-1338.42-689.7z"/>
		<path class="st7" d="M-1217-686.12v30.23h-11.4v-6.28c-2.9,4.44-8.5,6.95-16.23,6.95c-11.78,0-19.22-6.47-19.22-15.45
			c0-8.6,5.79-15.36,21.44-15.36h13.33v-0.77c0-7.05-4.25-11.2-12.85-11.2c-5.8,0-11.78,1.93-15.65,5.12l-4.73-8.79
			c5.51-4.25,13.52-6.38,21.83-6.38C-1225.6-708.05-1217-701-1217-686.12z M-1229.08-672.02v-5.99h-12.46
			c-8.21,0-10.43,3.09-10.43,6.86c0,4.35,3.67,7.15,9.85,7.15C-1236.23-664-1231.11-666.71-1229.08-672.02z"/>
		<path class="st7" d="M-1145.91-685.45v29.56h-12.07v-28.01c0-9.18-4.54-13.62-12.27-13.62c-8.6,0-14.39,5.22-14.39,15.55v26.08
			h-12.07v-51.58h11.49v6.66c3.96-4.73,10.24-7.24,17.77-7.24C-1155.09-708.05-1145.91-701-1145.91-685.45z"/>
		<path class="st7" d="M-1129.49-681.68c0-15.45,11.59-26.37,27.43-26.37c16.03,0,27.53,10.91,27.53,26.37s-11.49,26.47-27.53,26.47
			C-1117.9-655.21-1129.49-666.23-1129.49-681.68z M-1086.7-681.68c0-9.85-6.57-16.13-15.36-16.13c-8.69,0-15.26,6.28-15.26,16.13
			s6.57,16.13,15.26,16.13C-1093.27-665.55-1086.7-671.83-1086.7-681.68z"/>
		<path class="st7" d="M-1003.35-681.68c0,16.03-11.11,26.47-26.18,26.47c-6.57,0-12.36-2.22-16.52-6.95v25.02h-12.07v-70.32h11.49
			v6.76c4.06-4.93,10.04-7.34,17.1-7.34C-1014.46-708.05-1003.35-697.62-1003.35-681.68z M-1015.62-681.68
			c0-9.85-6.57-16.13-15.26-16.13c-8.69,0-15.36,6.28-15.36,16.13s6.66,16.13,15.36,16.13
			C-1022.18-665.55-1015.62-671.83-1015.62-681.68z"/>
		<path class="st7" d="M-940.18-707.47l-24.15,55.73c-4.73,11.69-11.3,15.26-19.9,15.26c-5.12,0-10.53-1.74-13.81-4.73l4.83-8.89
			c2.32,2.22,5.6,3.57,8.89,3.57c4.25,0,6.76-2.03,9.08-7.15l0.87-2.03l-22.5-51.77h12.56l16.23,38.15l16.32-38.15H-940.18z"/>
	</g>
	<g>
		<path class="st7" d="M-1379.53-693.57c0-18.9-14.42-34.49-32.84-36.35c-5.6-15.08-20.11-25.83-37.14-25.83
			c-16.46,0-30.57,10.03-36.56,24.32c-2.66-0.88-5.49-1.38-8.44-1.38c-14.76,0-26.72,11.97-26.72,26.73c0,1.7,0.18,3.35,0.48,4.96
			c-12,0.62-21.54,10.52-21.54,22.67c0,11.99,9.29,21.79,21.06,22.65v0.08h105.38c10.83,0,20.46-5.12,26.61-13.06
			C-1383.22-675.31-1379.53-684.02-1379.53-693.57z M-1384.85-693.57c0,17.21-14,31.21-31.21,31.21c-17.21,0-31.21-14-31.21-31.21
			s14-31.21,31.21-31.21C-1398.85-724.78-1384.85-710.78-1384.85-693.57z"/>
		<path class="st7" d="M-1432.99-702.61c0,6,4.8,10.86,10.76,11v0.07c5.78,0.57,10.31,5.39,10.44,11.29
			c-0.08,0.46-0.13,0.93-0.13,1.41c0,4.6,3.73,8.33,8.33,8.33s8.33-3.73,8.33-8.33c0-4.35-3.34-7.92-7.59-8.29
			c-4.94-1.33-8.58-5.82-8.58-11.18c0-0.58,0.06-1.16,0.14-1.72c0.2-0.83,0.32-1.69,0.32-2.58c0-6.08-4.93-11.01-11.01-11.01
			C-1428.06-713.62-1432.99-708.69-1432.99-702.61z M-1416.07-702.61c0,3.27-2.65,5.91-5.91,5.91s-5.91-2.65-5.91-5.91
			c0-3.27,2.65-5.91,5.91-5.91S-1416.07-705.87-1416.07-702.61z"/>
	</g>
</g>
<g>
	<g>
		<path class="st7" d="M-1333.59-300.65c0-10.15,7.77-17.49,18.22-17.49c5.54,0,10.3,1.99,13.46,5.68l-4.08,3.84
			c-2.48-2.67-5.54-3.98-9.09-3.98c-7.04,0-12.15,4.96-12.15,11.95s5.1,11.95,12.15,11.95c3.55,0,6.61-1.31,9.09-4.03l4.08,3.89
			c-3.16,3.69-7.92,5.68-13.51,5.68C-1325.82-283.16-1333.59-290.5-1333.59-300.65z"/>
		<path class="st7" d="M-1272.52-298.86v15.21h-5.73v-3.16c-1.46,2.24-4.28,3.5-8.16,3.5c-5.93,0-9.67-3.25-9.67-7.77
			c0-4.32,2.92-7.72,10.79-7.72h6.71v-0.39c0-3.55-2.14-5.64-6.46-5.64c-2.91,0-5.93,0.97-7.87,2.58l-2.38-4.42
			c2.77-2.14,6.8-3.21,10.98-3.21C-1276.84-309.88-1272.52-306.34-1272.52-298.86z M-1278.59-291.76v-3.01h-6.27
			c-4.13,0-5.25,1.55-5.25,3.45c0,2.19,1.85,3.6,4.96,3.6C-1282.19-287.73-1279.61-289.09-1278.59-291.76z"/>
		<path class="st7" d="M-1236.76-298.52v14.87h-6.07v-14.09c0-4.62-2.28-6.85-6.17-6.85c-4.32,0-7.24,2.62-7.24,7.82v13.12h-6.07
			v-25.94h5.78v3.35c1.99-2.38,5.15-3.64,8.94-3.64C-1241.37-309.88-1236.76-306.34-1236.76-298.52z"/>
		<path class="st7" d="M-1228.49-296.62c0-7.77,5.83-13.26,13.8-13.26c8.06,0,13.85,5.49,13.85,13.26s-5.78,13.31-13.85,13.31
			C-1222.66-283.31-1228.49-288.85-1228.49-296.62z M-1206.97-296.62c0-4.96-3.3-8.11-7.72-8.11c-4.37,0-7.68,3.16-7.68,8.11
			c0,4.96,3.3,8.11,7.68,8.11C-1210.28-288.51-1206.97-291.67-1206.97-296.62z"/>
		<path class="st7" d="M-1165.04-296.62c0,8.06-5.59,13.31-13.17,13.31c-3.3,0-6.22-1.12-8.31-3.5v12.58h-6.07v-35.37h5.78v3.4
			c2.04-2.48,5.05-3.69,8.6-3.69C-1170.63-309.88-1165.04-304.64-1165.04-296.62z M-1171.21-296.62c0-4.96-3.3-8.11-7.68-8.11
			c-4.37,0-7.72,3.16-7.72,8.11c0,4.96,3.35,8.11,7.72,8.11C-1174.51-288.51-1171.21-291.67-1171.21-296.62z"/>
		<path class="st7" d="M-1133.26-309.59l-12.15,28.03c-2.38,5.88-5.69,7.68-10.01,7.68c-2.58,0-5.3-0.88-6.95-2.38l2.43-4.47
			c1.17,1.12,2.82,1.8,4.47,1.8c2.14,0,3.4-1.02,4.57-3.6l0.44-1.02l-11.32-26.04h6.32l8.16,19.19l8.21-19.19H-1133.26z"/>
	</g>
	<g>
		<path class="st7" d="M-1322.68-261.02h-0.12l-7.65-11.22v16.98h-2.31v-21h2.4l7.65,11.46l7.65-11.46h2.4v21h-2.37v-17.01
			L-1322.68-261.02z"/>
		<path class="st7" d="M-1300.41-268.62c-0.75,0.21-1.49,0.49-2.21,0.83l-0.69-1.89c0.86-0.4,1.73-0.71,2.61-0.94
			c0.88-0.23,1.89-0.35,3.03-0.35c2.12,0,3.75,0.53,4.89,1.58s1.71,2.61,1.71,4.67v9.48h-2.22v-2.34c-0.54,0.7-1.26,1.32-2.17,1.86
			c-0.91,0.54-2.05,0.81-3.44,0.81c-0.72,0-1.42-0.1-2.12-0.3c-0.69-0.2-1.31-0.5-1.86-0.91c-0.55-0.41-0.99-0.92-1.32-1.52
			s-0.49-1.31-0.49-2.13c0-0.82,0.16-1.55,0.48-2.18c0.32-0.63,0.77-1.15,1.36-1.57c0.59-0.42,1.29-0.74,2.1-0.96
			c0.81-0.22,1.71-0.33,2.68-0.33c1,0,1.87,0.06,2.61,0.18c0.74,0.12,1.46,0.28,2.16,0.48v-0.54c0-1.4-0.41-2.45-1.21-3.17
			c-0.81-0.71-1.95-1.06-3.41-1.06C-1298.82-268.94-1299.66-268.83-1300.41-268.62z M-1301.14-262.25
			c-0.78,0.58-1.17,1.37-1.17,2.37c0,0.5,0.11,0.94,0.31,1.32s0.49,0.7,0.85,0.97c0.36,0.27,0.77,0.48,1.24,0.62
			c0.47,0.14,0.96,0.21,1.48,0.21c0.72,0,1.39-0.1,2.02-0.31c0.63-0.21,1.18-0.5,1.64-0.87c0.47-0.37,0.84-0.81,1.11-1.32
			c0.27-0.51,0.4-1.08,0.4-1.7v-1.5c-0.58-0.16-1.24-0.31-1.99-0.45c-0.75-0.14-1.6-0.21-2.56-0.21
			C-1299.25-263.12-1300.37-262.83-1301.14-262.25z"/>
		<path class="st7" d="M-1280.23-255.26h-2.31v-15.51h2.31v2.7c0.52-0.84,1.2-1.55,2.04-2.15c0.84-0.59,1.93-0.88,3.27-0.88
			c0.94,0,1.78,0.15,2.51,0.45c0.73,0.3,1.35,0.73,1.86,1.27c0.51,0.55,0.9,1.21,1.17,1.97c0.27,0.76,0.4,1.6,0.4,2.52v9.63h-2.31
			v-9.06c0-1.44-0.37-2.58-1.11-3.42s-1.8-1.26-3.18-1.26c-0.66,0-1.28,0.12-1.84,0.35c-0.57,0.23-1.07,0.56-1.49,0.99
			s-0.74,0.94-0.97,1.54s-0.35,1.26-0.35,1.98V-255.26z"/>
		<path class="st7" d="M-1257.36-268.62c-0.75,0.21-1.48,0.49-2.21,0.83l-0.69-1.89c0.86-0.4,1.73-0.71,2.61-0.94
			c0.88-0.23,1.89-0.35,3.03-0.35c2.12,0,3.75,0.53,4.89,1.58s1.71,2.61,1.71,4.67v9.48h-2.22v-2.34c-0.54,0.7-1.27,1.32-2.18,1.86
			c-0.91,0.54-2.05,0.81-3.43,0.81c-0.72,0-1.43-0.1-2.12-0.3c-0.69-0.2-1.31-0.5-1.86-0.91c-0.55-0.41-0.99-0.92-1.32-1.52
			s-0.5-1.31-0.5-2.13c0-0.82,0.16-1.55,0.48-2.18s0.78-1.15,1.37-1.57c0.59-0.42,1.29-0.74,2.1-0.96c0.81-0.22,1.71-0.33,2.69-0.33
			c1,0,1.87,0.06,2.61,0.18c0.74,0.12,1.46,0.28,2.16,0.48v-0.54c0-1.4-0.4-2.45-1.21-3.17c-0.81-0.71-1.95-1.06-3.4-1.06
			C-1255.77-268.94-1256.61-268.83-1257.36-268.62z M-1258.09-262.25c-0.78,0.58-1.17,1.37-1.17,2.37c0,0.5,0.1,0.94,0.31,1.32
			s0.49,0.7,0.85,0.97c0.36,0.27,0.77,0.48,1.24,0.62c0.47,0.14,0.96,0.21,1.48,0.21c0.72,0,1.39-0.1,2.02-0.31
			c0.63-0.21,1.18-0.5,1.64-0.87c0.47-0.37,0.84-0.81,1.11-1.32c0.27-0.51,0.4-1.08,0.4-1.7v-1.5c-0.58-0.16-1.24-0.31-1.99-0.45
			c-0.75-0.14-1.6-0.21-2.56-0.21C-1256.2-263.12-1257.32-262.83-1258.09-262.25z"/>
		<path class="st7" d="M-1225.29-254.66c-0.37,0.94-0.9,1.73-1.59,2.35c-0.69,0.63-1.52,1.1-2.49,1.42
			c-0.97,0.32-2.05,0.48-3.26,0.48c-1.3,0-2.54-0.18-3.72-0.54c-1.18-0.36-2.29-0.9-3.33-1.62l1.05-1.8
			c0.9,0.64,1.84,1.13,2.82,1.47c0.98,0.34,2.03,0.51,3.15,0.51c1.72,0,3.09-0.46,4.11-1.4c1.02-0.93,1.53-2.3,1.53-4.12v-1.83
			c-0.68,0.9-1.51,1.67-2.49,2.31c-0.98,0.64-2.18,0.96-3.6,0.96c-0.94,0-1.84-0.17-2.71-0.49c-0.87-0.33-1.64-0.81-2.32-1.44
			c-0.68-0.63-1.22-1.4-1.63-2.3c-0.41-0.9-0.62-1.92-0.62-3.06c0-1.14,0.21-2.16,0.62-3.07c0.41-0.91,0.96-1.68,1.63-2.31
			s1.46-1.11,2.34-1.46c0.88-0.34,1.78-0.51,2.7-0.51c0.72,0,1.38,0.08,2,0.25c0.61,0.17,1.16,0.4,1.65,0.67
			c0.49,0.28,0.93,0.61,1.33,0.99s0.76,0.78,1.08,1.2v-2.79h2.31v12.81C-1224.73-256.7-1224.92-255.6-1225.29-254.66z
			 M-1227.43-265.95c-0.32-0.65-0.74-1.21-1.27-1.67c-0.53-0.46-1.14-0.81-1.82-1.06s-1.39-0.38-2.13-0.38s-1.44,0.12-2.09,0.36
			c-0.65,0.24-1.22,0.59-1.71,1.05c-0.49,0.46-0.88,1.02-1.16,1.67c-0.28,0.65-0.42,1.38-0.42,2.18s0.15,1.52,0.44,2.17
			c0.29,0.65,0.68,1.21,1.17,1.68c0.49,0.47,1.06,0.83,1.71,1.08c0.65,0.25,1.33,0.38,2.05,0.38c0.74,0,1.45-0.12,2.13-0.38
			c0.68-0.25,1.29-0.6,1.82-1.06c0.53-0.46,0.96-1.01,1.27-1.67c0.32-0.65,0.48-1.37,0.48-2.17
			C-1226.95-264.58-1227.11-265.3-1227.43-265.95z"/>
		<path class="st7" d="M-1213.96-259.92c0.32,0.65,0.73,1.2,1.23,1.65c0.5,0.45,1.06,0.79,1.68,1.02c0.62,0.23,1.27,0.35,1.95,0.35
			c1.08,0,2.01-0.2,2.78-0.6c0.77-0.4,1.47-0.93,2.12-1.59l1.44,1.29c-0.78,0.88-1.67,1.58-2.67,2.11c-1,0.53-2.24,0.79-3.72,0.79
			c-1.06,0-2.06-0.19-3-0.58c-0.94-0.39-1.76-0.94-2.47-1.65c-0.71-0.71-1.26-1.56-1.68-2.56c-0.41-1-0.62-2.1-0.62-3.3
			c0-1.12,0.19-2.17,0.55-3.16c0.37-0.99,0.88-1.85,1.54-2.58s1.45-1.31,2.36-1.73s1.91-0.63,2.98-0.63c1.14,0,2.16,0.21,3.06,0.65
			s1.66,1.02,2.28,1.75c0.62,0.74,1.09,1.61,1.41,2.61c0.32,1,0.48,2.07,0.48,3.21c0,0.1,0,0.21,0,0.33s-0.01,0.25-0.03,0.39h-12.27
			C-1214.48-261.32-1214.28-260.57-1213.96-259.92z M-1204.63-263.87c-0.06-0.7-0.21-1.37-0.43-2.01c-0.23-0.64-0.55-1.2-0.95-1.68
			c-0.41-0.48-0.9-0.87-1.49-1.16c-0.59-0.29-1.27-0.44-2.04-0.44c-0.68,0-1.3,0.14-1.88,0.41c-0.58,0.27-1.08,0.64-1.52,1.11
			c-0.44,0.47-0.79,1.03-1.07,1.67c-0.28,0.64-0.46,1.34-0.54,2.1H-1204.63z"/>
	</g>
	<g>
		<path class="st7" d="M-1351.97-303.3c0-9.93-7.58-18.12-17.26-19.09c-2.94-7.92-10.55-13.57-19.49-13.57
			c-8.64,0-16.05,5.27-19.2,12.77c-1.39-0.46-2.88-0.73-4.43-0.73c-7.75,0-14.04,6.28-14.04,14.04c0,0.89,0.09,1.76,0.25,2.6
			c-6.3,0.33-11.31,5.52-11.31,11.91c0,6.3,4.88,11.44,11.06,11.89v0.04h55.35c5.71,0,10.77-2.72,14-6.91
			C-1353.9-293.76-1351.97-298.3-1351.97-303.3z M-1354.76-303.3c0,9.04-7.35,16.39-16.39,16.39s-16.39-7.35-16.39-16.39
			c0-9.04,7.35-16.39,16.39-16.39S-1354.76-312.34-1354.76-303.3z"/>
		<path class="st7" d="M-1371.77-313.28c-0.4,0.19-0.79,0.41-1.16,0.66l-0.81-0.6l-1.91,1.93l0.61,0.81
			c-0.2,0.3-0.38,0.61-0.55,0.94l-1-0.13l-0.73,2.61l0.92,0.41c-0.04,0.4-0.04,0.81-0.01,1.2l-0.94,0.39l0.67,2.63l1.01-0.11
			c0.19,0.4,0.41,0.79,0.66,1.16l-0.6,0.81l1.93,1.91l0.8-0.61c0.3,0.2,0.61,0.38,0.94,0.55l-0.13,1l2.61,0.73l0.41-0.92
			c0.4,0.04,0.81,0.04,1.2,0.01l0.39,0.94l2.63-0.67l-0.11-1.01c0.4-0.19,0.79-0.41,1.16-0.66l0.81,0.6l1.91-1.93l-0.61-0.8
			c0.2-0.3,0.38-0.61,0.55-0.94l1,0.13l0.73-2.61l-0.92-0.41c0.04-0.4,0.04-0.81,0.01-1.2l0.94-0.39l-0.67-2.63l-1.01,0.11
			c-0.19-0.4-0.41-0.79-0.66-1.16l0.6-0.81l-1.93-1.91l-0.8,0.61c-0.3-0.2-0.61-0.38-0.94-0.55l0.13-1l-2.61-0.73l-0.41,0.92
			c-0.4-0.04-0.81-0.04-1.2-0.01l-0.39-0.94l-2.63,0.67L-1371.77-313.28z M-1366.99-310.85c2.69,0.75,4.26,3.55,3.51,6.24
			s-3.55,4.26-6.24,3.51c-2.69-0.75-4.26-3.55-3.51-6.24C-1372.48-310.04-1369.68-311.61-1366.99-310.85z"/>
		<path class="st7" d="M-1369.06-303.47c1.39,0.39,2.82-0.42,3.21-1.81s-0.42-2.82-1.81-3.21s-2.82,0.42-3.21,1.81
			S-1370.45-303.86-1369.06-303.47z"/>
		<path class="st7" d="M-1374.23-296.77l0.23-0.23l-0.4-0.72l-0.36,0.08c-0.16-0.18-0.33-0.35-0.52-0.5l0.09-0.36l-0.71-0.42
			l-0.3,0.29c-0.19-0.06-0.39-0.11-0.6-0.14l-0.12-0.41l-0.83-0.01l-0.13,0.44c-0.2,0.04-0.38,0.1-0.57,0.17l-0.34-0.33l-0.72,0.4
			l0.12,0.51c-0.14,0.12-0.26,0.26-0.38,0.4l-0.51-0.13l-0.42,0.71l0.39,0.41c-0.05,0.15-0.1,0.3-0.12,0.46l-0.52,0.15l-0.01,0.83
			l0.54,0.16c0.03,0.17,0.08,0.33,0.13,0.48l-0.38,0.39l0.4,0.72l0.53-0.12c0.12,0.14,0.24,0.27,0.38,0.4l-0.12,0.5l0.71,0.42
			l0.35-0.33c0.17,0.07,0.35,0.13,0.54,0.17l0.12,0.43l0.83,0.01l0.13-0.42c0.22-0.03,0.42-0.08,0.62-0.15l0.29,0.28l0.72-0.4
			l-0.09-0.37c0.19-0.15,0.36-0.31,0.52-0.5l0.34,0.08l0.42-0.71l-0.23-0.24c0.09-0.22,0.14-0.45,0.18-0.68l0.31-0.09l0.01-0.83
			l-0.32-0.1C-1374.08-296.31-1374.14-296.55-1374.23-296.77z M-1377.24-294.22c-0.74,0-1.35-0.6-1.35-1.35s0.6-1.35,1.35-1.35
			c0.74,0,1.35,0.6,1.35,1.35S-1376.49-294.22-1377.24-294.22z"/>
	</g>
</g>
<g>
	<g>
		<path class="st7" d="M-964.04-300.65c0-10.15,7.77-17.49,18.22-17.49c5.54,0,10.3,1.99,13.46,5.68l-4.08,3.84
			c-2.48-2.67-5.54-3.98-9.08-3.98c-7.04,0-12.15,4.96-12.15,11.95s5.1,11.95,12.15,11.95c3.55,0,6.61-1.31,9.08-4.03l4.08,3.89
			c-3.16,3.69-7.92,5.68-13.51,5.68C-956.27-283.16-964.04-290.5-964.04-300.65z"/>
		<path class="st7" d="M-902.97-298.86v15.21h-5.73v-3.16c-1.46,2.24-4.28,3.5-8.16,3.5c-5.93,0-9.67-3.25-9.67-7.77
			c0-4.32,2.92-7.72,10.79-7.72h6.71v-0.39c0-3.55-2.14-5.64-6.46-5.64c-2.92,0-5.93,0.97-7.87,2.58l-2.38-4.42
			c2.77-2.14,6.8-3.21,10.98-3.21C-907.29-309.88-902.97-306.34-902.97-298.86z M-909.04-291.76v-3.01h-6.27
			c-4.13,0-5.25,1.55-5.25,3.45c0,2.19,1.85,3.6,4.96,3.6C-912.64-287.73-910.06-289.09-909.04-291.76z"/>
		<path class="st7" d="M-867.21-298.52v14.87h-6.07v-14.09c0-4.62-2.28-6.85-6.17-6.85c-4.32,0-7.24,2.62-7.24,7.82v13.12h-6.07
			v-25.94h5.78v3.35c1.99-2.38,5.15-3.64,8.94-3.64C-871.82-309.88-867.21-306.34-867.21-298.52z"/>
		<path class="st7" d="M-858.95-296.62c0-7.77,5.83-13.26,13.8-13.26c8.07,0,13.85,5.49,13.85,13.26s-5.78,13.31-13.85,13.31
			C-853.12-283.31-858.95-288.85-858.95-296.62z M-837.42-296.62c0-4.96-3.3-8.11-7.73-8.11c-4.37,0-7.68,3.16-7.68,8.11
			c0,4.96,3.3,8.11,7.68,8.11C-840.73-288.51-837.42-291.67-837.42-296.62z"/>
		<path class="st7" d="M-795.49-296.62c0,8.06-5.59,13.31-13.17,13.31c-3.3,0-6.22-1.12-8.31-3.5v12.58h-6.07v-35.37h5.78v3.4
			c2.04-2.48,5.05-3.69,8.6-3.69C-801.08-309.88-795.49-304.64-795.49-296.62z M-801.66-296.62c0-4.96-3.3-8.11-7.68-8.11
			s-7.72,3.16-7.72,8.11c0,4.96,3.35,8.11,7.72,8.11S-801.66-291.67-801.66-296.62z"/>
		<path class="st7" d="M-763.72-309.59l-12.15,28.03c-2.38,5.88-5.68,7.68-10.01,7.68c-2.57,0-5.29-0.88-6.95-2.38l2.43-4.47
			c1.17,1.12,2.82,1.8,4.47,1.8c2.14,0,3.4-1.02,4.57-3.6l0.44-1.02l-11.32-26.04h6.32l8.16,19.19l8.21-19.19H-763.72z"/>
	</g>
	<g>
		<path class="st7" d="M-961.14-269.68c0.16,0.4,0.45,0.77,0.87,1.1s1,0.63,1.74,0.9c0.74,0.27,1.69,0.53,2.85,0.77
			c2.34,0.52,4.07,1.24,5.17,2.16c1.11,0.92,1.67,2.19,1.67,3.82c0,0.9-0.18,1.72-0.53,2.46c-0.36,0.74-0.85,1.37-1.47,1.89
			c-0.62,0.52-1.38,0.92-2.26,1.2c-0.88,0.28-1.84,0.42-2.88,0.42c-1.68,0-3.22-0.27-4.61-0.81c-1.39-0.54-2.71-1.38-3.97-2.52
			l1.47-1.74c1.1,1,2.21,1.75,3.33,2.23c1.12,0.49,2.41,0.74,3.87,0.74c1.42,0,2.55-0.33,3.41-0.99c0.85-0.66,1.27-1.53,1.27-2.61
			c0-0.5-0.08-0.95-0.24-1.34c-0.16-0.39-0.44-0.75-0.84-1.07c-0.4-0.32-0.96-0.61-1.67-0.87c-0.71-0.26-1.62-0.51-2.72-0.75
			c-1.2-0.26-2.25-0.56-3.14-0.9c-0.89-0.34-1.63-0.75-2.21-1.23c-0.58-0.48-1.01-1.04-1.29-1.68c-0.28-0.64-0.42-1.4-0.42-2.28
			c0-0.84,0.17-1.61,0.51-2.31c0.34-0.7,0.82-1.31,1.44-1.82c0.62-0.51,1.35-0.91,2.19-1.2c0.84-0.29,1.76-0.44,2.76-0.44
			c1.54,0,2.88,0.21,4.04,0.64c1.15,0.42,2.26,1.06,3.34,1.91l-1.38,1.83c-0.98-0.8-1.96-1.38-2.96-1.74
			c-0.99-0.36-2.03-0.54-3.11-0.54c-0.68,0-1.29,0.09-1.84,0.27c-0.55,0.18-1.02,0.42-1.41,0.72c-0.39,0.3-0.69,0.66-0.9,1.08
			c-0.21,0.42-0.32,0.87-0.32,1.35C-961.38-270.53-961.3-270.08-961.14-269.68z"/>
		<path class="st7" d="M-938.79-259.92c0.32,0.65,0.73,1.2,1.23,1.65c0.5,0.45,1.06,0.79,1.68,1.02c0.62,0.23,1.27,0.35,1.95,0.35
			c1.08,0,2-0.2,2.77-0.6c0.77-0.4,1.47-0.93,2.12-1.59l1.44,1.29c-0.78,0.88-1.67,1.58-2.67,2.11c-1,0.53-2.24,0.79-3.72,0.79
			c-1.06,0-2.06-0.19-3-0.58s-1.76-0.94-2.47-1.65c-0.71-0.71-1.26-1.56-1.68-2.56c-0.42-1-0.62-2.1-0.62-3.3
			c0-1.12,0.18-2.17,0.55-3.16c0.37-0.99,0.88-1.85,1.54-2.58s1.45-1.31,2.36-1.73c0.91-0.42,1.91-0.63,2.98-0.63
			c1.14,0,2.16,0.21,3.06,0.65c0.9,0.43,1.66,1.02,2.28,1.75c0.62,0.74,1.09,1.61,1.41,2.61c0.32,1,0.48,2.07,0.48,3.21
			c0,0.1,0,0.21,0,0.33s-0.01,0.25-0.03,0.39h-12.27C-939.31-261.32-939.11-260.57-938.79-259.92z M-929.46-263.87
			c-0.06-0.7-0.2-1.37-0.43-2.01c-0.23-0.64-0.55-1.2-0.95-1.68s-0.9-0.87-1.49-1.16c-0.59-0.29-1.27-0.44-2.04-0.44
			c-0.68,0-1.3,0.14-1.88,0.41c-0.58,0.27-1.08,0.64-1.52,1.11c-0.44,0.47-0.8,1.03-1.07,1.67c-0.28,0.64-0.46,1.34-0.54,2.1
			H-929.46z"/>
		<path class="st7" d="M-908.78-255.75c-0.99,0.57-2.22,0.85-3.67,0.85c-1.14,0-2.2-0.21-3.17-0.65c-0.97-0.43-1.81-1.01-2.52-1.74
			s-1.26-1.58-1.67-2.56s-0.6-2.02-0.6-3.12c0-1.1,0.2-2.15,0.6-3.14c0.4-0.99,0.96-1.85,1.67-2.59c0.71-0.74,1.55-1.32,2.52-1.75
			c0.97-0.43,2.02-0.65,3.17-0.65c0.74,0,1.41,0.07,2.01,0.21c0.6,0.14,1.15,0.33,1.65,0.58c0.5,0.25,0.96,0.54,1.38,0.88
			c0.42,0.34,0.81,0.7,1.17,1.08l-1.53,1.62c-0.62-0.64-1.29-1.19-2.03-1.65c-0.73-0.46-1.62-0.69-2.68-0.69
			c-0.78,0-1.51,0.15-2.19,0.46s-1.27,0.74-1.77,1.29s-0.89,1.19-1.17,1.92c-0.28,0.73-0.42,1.51-0.42,2.35
			c0,0.84,0.14,1.63,0.43,2.36s0.69,1.38,1.2,1.93s1.11,0.98,1.8,1.29c0.69,0.31,1.45,0.46,2.27,0.46c1,0,1.88-0.22,2.65-0.66
			s1.46-0.99,2.08-1.65l1.47,1.38C-906.9-257.04-907.79-256.32-908.78-255.75z"/>
		<path class="st7" d="M-887.7-270.77h2.28v15.51h-2.28v-2.7c-0.52,0.84-1.2,1.56-2.04,2.15c-0.84,0.59-1.93,0.89-3.27,0.89
			c-0.94,0-1.78-0.15-2.5-0.45c-0.73-0.3-1.35-0.72-1.86-1.27c-0.51-0.55-0.9-1.2-1.17-1.96c-0.27-0.76-0.41-1.6-0.41-2.52v-9.63
			h2.31v9.06c0,1.44,0.37,2.58,1.11,3.42c0.74,0.84,1.8,1.26,3.18,1.26c0.66,0,1.27-0.11,1.84-0.35c0.57-0.23,1.06-0.56,1.47-0.99
			c0.41-0.43,0.74-0.94,0.98-1.54c0.24-0.6,0.36-1.26,0.36-1.98V-270.77z"/>
		<path class="st7" d="M-874.32-255.26h-2.31v-15.51h2.31v4.05c0.28-0.64,0.63-1.23,1.05-1.77c0.42-0.54,0.9-1,1.44-1.4
			s1.13-0.69,1.77-0.88c0.64-0.2,1.33-0.29,2.07-0.27v2.49h-0.18c-0.84,0-1.63,0.15-2.38,0.45c-0.75,0.3-1.41,0.75-1.96,1.35
			c-0.56,0.6-1,1.35-1.32,2.24c-0.32,0.89-0.48,1.92-0.48,3.07V-255.26z"/>
		<path class="st7" d="M-859.53-259.92c0.32,0.65,0.73,1.2,1.23,1.65c0.5,0.45,1.06,0.79,1.68,1.02c0.62,0.23,1.27,0.35,1.95,0.35
			c1.08,0,2-0.2,2.77-0.6c0.77-0.4,1.47-0.93,2.12-1.59l1.44,1.29c-0.78,0.88-1.67,1.58-2.67,2.11c-1,0.53-2.24,0.79-3.72,0.79
			c-1.06,0-2.06-0.19-3-0.58s-1.76-0.94-2.47-1.65c-0.71-0.71-1.26-1.56-1.68-2.56c-0.42-1-0.62-2.1-0.62-3.3
			c0-1.12,0.18-2.17,0.55-3.16c0.37-0.99,0.88-1.85,1.54-2.58s1.45-1.31,2.36-1.73c0.91-0.42,1.91-0.63,2.98-0.63
			c1.14,0,2.16,0.21,3.06,0.65c0.9,0.43,1.66,1.02,2.28,1.75c0.62,0.74,1.09,1.61,1.41,2.61c0.32,1,0.48,2.07,0.48,3.21
			c0,0.1,0,0.21,0,0.33s-0.01,0.25-0.03,0.39h-12.27C-860.05-261.32-859.85-260.57-859.53-259.92z M-850.2-263.87
			c-0.06-0.7-0.2-1.37-0.43-2.01c-0.23-0.64-0.55-1.2-0.95-1.68s-0.9-0.87-1.49-1.16c-0.59-0.29-1.27-0.44-2.04-0.44
			c-0.68,0-1.3,0.14-1.88,0.41c-0.58,0.27-1.08,0.64-1.52,1.11c-0.44,0.47-0.8,1.03-1.07,1.67c-0.28,0.64-0.46,1.34-0.54,2.1H-850.2
			z"/>
	</g>
	<g>
		<path class="st7" d="M-984.72-303.3c0-9.93-7.58-18.12-17.26-19.09c-2.94-7.92-10.55-13.57-19.49-13.57
			c-8.64,0-16.05,5.27-19.2,12.77c-1.39-0.46-2.88-0.73-4.43-0.73c-7.75,0-14.04,6.28-14.04,14.04c0,0.89,0.09,1.76,0.25,2.6
			c-6.3,0.33-11.31,5.52-11.31,11.91c0,6.3,4.88,11.44,11.06,11.89v0.04h55.35c5.71,0,10.77-2.72,14-6.91
			C-986.65-293.76-984.72-298.3-984.72-303.3z M-987.51-303.3c0,9.04-7.35,16.39-16.39,16.39c-9.04,0-16.39-7.35-16.39-16.39
			c0-9.04,7.35-16.39,16.39-16.39C-994.87-319.69-987.51-312.34-987.51-303.3z"/>
		<path class="st7" d="M-1009.88-309.96v1.95h-0.84c-0.28,0-0.5,0.22-0.5,0.5v13.62c0,0.28,0.22,0.5,0.5,0.5h13.62
			c0.28,0,0.5-0.22,0.5-0.5v-13.62c0-0.28-0.22-0.5-0.5-0.5h-0.69v-1.95c0-2.78-2.26-5.04-5.04-5.04h-2
			C-1007.61-315-1009.88-312.74-1009.88-309.96z M-999.46-296.25h-8.89v-8.89h8.89V-296.25z M-1000.65-309.96v1.95h-6.36v-1.95
			c0-1.2,0.98-2.18,2.18-2.18h2C-1001.63-312.13-1000.65-311.16-1000.65-309.96z"/>
	</g>
</g>
<g>
	<g>
		<path class="st7" d="M-1700.36-300.66c0-10.04,7.68-17.29,18.01-17.29c5.47,0,10.18,1.97,13.3,5.62l-4.03,3.79
			c-2.45-2.64-5.47-3.94-8.98-3.94c-6.96,0-12,4.9-12,11.81c0,6.91,5.04,11.81,12,11.81c3.51,0,6.53-1.3,8.98-3.99l4.03,3.84
			c-3.12,3.65-7.83,5.62-13.35,5.62C-1692.68-283.37-1700.36-290.62-1700.36-300.66z"/>
		<path class="st7" d="M-1640.01-298.88v15.03h-5.67v-3.12c-1.44,2.21-4.23,3.46-8.07,3.46c-5.86,0-9.56-3.22-9.56-7.68
			c0-4.27,2.88-7.63,10.66-7.63h6.63v-0.38c0-3.51-2.11-5.57-6.39-5.57c-2.88,0-5.86,0.96-7.78,2.54l-2.35-4.37
			c2.74-2.11,6.72-3.17,10.85-3.17C-1644.28-309.78-1640.01-306.28-1640.01-298.88z M-1646.01-291.87v-2.98h-6.19
			c-4.08,0-5.19,1.54-5.19,3.41c0,2.16,1.82,3.55,4.9,3.55C-1649.56-287.89-1647.02-289.23-1646.01-291.87z"/>
		<path class="st7" d="M-1604.67-298.55v14.69h-6v-13.93c0-4.56-2.26-6.77-6.1-6.77c-4.27,0-7.16,2.59-7.16,7.73v12.97h-6v-25.64
			h5.71v3.31c1.97-2.35,5.09-3.6,8.84-3.6C-1609.23-309.78-1604.67-306.28-1604.67-298.55z"/>
		<path class="st7" d="M-1596.51-296.67c0-7.68,5.76-13.11,13.64-13.11c7.97,0,13.69,5.43,13.69,13.11s-5.71,13.16-13.69,13.16
			C-1590.75-283.52-1596.51-288.99-1596.51-296.67z M-1575.24-296.67c0-4.9-3.27-8.02-7.63-8.02c-4.32,0-7.59,3.12-7.59,8.02
			s3.27,8.02,7.59,8.02C-1578.5-288.65-1575.24-291.77-1575.24-296.67z"/>
		<path class="st7" d="M-1533.8-296.67c0,7.97-5.52,13.16-13.01,13.16c-3.27,0-6.15-1.1-8.21-3.46v12.44h-6v-34.96h5.71v3.36
			c2.02-2.45,4.99-3.65,8.5-3.65C-1539.32-309.78-1533.8-304.6-1533.8-296.67z M-1539.9-296.67c0-4.9-3.27-8.02-7.59-8.02
			s-7.64,3.12-7.64,8.02s3.31,8.02,7.64,8.02S-1539.9-291.77-1539.9-296.67z"/>
		<path class="st7" d="M-1502.4-309.49l-12,27.71c-2.35,5.81-5.62,7.59-9.89,7.59c-2.54,0-5.23-0.86-6.87-2.35l2.4-4.42
			c1.15,1.1,2.79,1.78,4.42,1.78c2.11,0,3.36-1.01,4.51-3.55l0.43-1.01l-11.19-25.74h6.24l8.07,18.97l8.12-18.97H-1502.4z"/>
	</g>
	<g>
		<path class="st7" d="M-1691.58-255.8h-2.37v-18.81h-7.05v-2.19h16.47v2.19h-7.05V-255.8z"/>
		<path class="st7" d="M-1666.07-260.43c-0.41,0.99-0.97,1.85-1.7,2.59c-0.72,0.74-1.58,1.33-2.58,1.75c-1,0.43-2.08,0.65-3.24,0.65
			c-1.16,0-2.23-0.21-3.21-0.65c-0.98-0.43-1.83-1.01-2.55-1.74c-0.72-0.73-1.28-1.58-1.68-2.56s-0.6-2.02-0.6-3.12
			c0-1.1,0.2-2.15,0.6-3.14c0.4-0.99,0.96-1.85,1.68-2.59c0.72-0.74,1.58-1.32,2.57-1.75c0.99-0.43,2.08-0.65,3.25-0.65
			c1.16,0,2.24,0.21,3.22,0.65c0.99,0.43,1.85,1.01,2.57,1.74c0.72,0.73,1.28,1.59,1.68,2.56c0.4,0.98,0.6,2.02,0.6,3.12
			C-1665.45-262.47-1665.66-261.42-1666.07-260.43z M-1668.26-265.89c-0.29-0.74-0.7-1.38-1.21-1.93c-0.52-0.55-1.13-0.98-1.83-1.3
			c-0.7-0.32-1.46-0.48-2.28-0.48c-0.84,0-1.61,0.15-2.31,0.46c-0.7,0.31-1.3,0.74-1.79,1.29c-0.49,0.55-0.88,1.19-1.16,1.92
			s-0.42,1.51-0.42,2.35c0,0.84,0.14,1.63,0.43,2.36s0.69,1.38,1.2,1.92s1.11,0.97,1.82,1.29c0.7,0.32,1.46,0.48,2.28,0.48
			c0.84,0,1.61-0.15,2.31-0.46c0.7-0.31,1.3-0.73,1.8-1.27c0.5-0.54,0.89-1.17,1.17-1.9c0.28-0.73,0.42-1.51,0.42-2.35
			C-1667.82-264.36-1667.97-265.15-1668.26-265.89z"/>
		<path class="st7" d="M-1643.09-260.43c-0.41,0.99-0.97,1.85-1.7,2.59c-0.72,0.74-1.58,1.33-2.58,1.75c-1,0.43-2.08,0.65-3.24,0.65
			s-2.23-0.21-3.21-0.65c-0.98-0.43-1.83-1.01-2.55-1.74c-0.72-0.73-1.28-1.58-1.68-2.56c-0.4-0.98-0.6-2.02-0.6-3.12
			c0-1.1,0.2-2.15,0.6-3.14c0.4-0.99,0.96-1.85,1.68-2.59c0.72-0.74,1.58-1.32,2.56-1.75c0.99-0.43,2.08-0.65,3.26-0.65
			c1.16,0,2.23,0.21,3.22,0.65s1.85,1.01,2.56,1.74c0.72,0.73,1.28,1.59,1.68,2.56c0.4,0.98,0.6,2.02,0.6,3.12
			C-1642.47-262.47-1642.68-261.42-1643.09-260.43z M-1645.28-265.89c-0.29-0.74-0.69-1.38-1.21-1.93c-0.52-0.55-1.13-0.98-1.83-1.3
			c-0.7-0.32-1.46-0.48-2.28-0.48c-0.84,0-1.61,0.15-2.31,0.46s-1.3,0.74-1.79,1.29c-0.49,0.55-0.88,1.19-1.16,1.92
			c-0.28,0.73-0.42,1.51-0.42,2.35c0,0.84,0.14,1.63,0.44,2.36c0.29,0.74,0.69,1.38,1.2,1.92s1.12,0.97,1.82,1.29
			c0.7,0.32,1.46,0.48,2.28,0.48c0.84,0,1.61-0.15,2.31-0.46s1.3-0.73,1.8-1.27c0.5-0.54,0.89-1.17,1.17-1.9
			c0.28-0.73,0.42-1.51,0.42-2.35C-1644.84-264.36-1644.99-265.15-1645.28-265.89z"/>
		<path class="st7" d="M-1634.49-255.8v-21.9h2.31v21.9H-1634.49z"/>
		<path class="st7" d="M-1613-258.18c-0.29,0.57-0.68,1.05-1.17,1.45c-0.49,0.4-1.07,0.71-1.74,0.92c-0.67,0.21-1.39,0.31-2.17,0.31
			c-1.12,0-2.25-0.21-3.39-0.61c-1.14-0.41-2.15-0.96-3.03-1.67l1.17-1.65c0.84,0.64,1.71,1.13,2.62,1.47
			c0.91,0.34,1.82,0.51,2.75,0.51c0.94,0,1.71-0.22,2.31-0.66c0.6-0.44,0.9-1.04,0.9-1.8v-0.06c0-0.38-0.11-0.71-0.31-0.99
			c-0.21-0.28-0.5-0.52-0.86-0.73c-0.36-0.21-0.78-0.39-1.25-0.56c-0.47-0.16-0.96-0.31-1.46-0.45c-0.6-0.18-1.21-0.38-1.82-0.58
			c-0.61-0.21-1.16-0.48-1.65-0.79c-0.49-0.32-0.89-0.72-1.2-1.2s-0.46-1.08-0.46-1.8v-0.06c0-0.66,0.13-1.26,0.39-1.81
			c0.26-0.55,0.62-1.02,1.09-1.41c0.47-0.39,1.03-0.69,1.68-0.9c0.65-0.21,1.35-0.31,2.11-0.31c0.96,0,1.93,0.15,2.91,0.46
			c0.98,0.31,1.87,0.73,2.67,1.25l-1.05,1.74c-0.72-0.46-1.48-0.82-2.27-1.09s-1.56-0.41-2.33-0.41c-0.92,0-1.65,0.22-2.19,0.65
			c-0.54,0.43-0.81,0.97-0.81,1.6v0.06c0,0.36,0.11,0.67,0.33,0.94s0.51,0.51,0.89,0.71c0.37,0.2,0.79,0.38,1.27,0.54
			c0.48,0.16,0.98,0.32,1.5,0.48c0.6,0.18,1.19,0.38,1.79,0.6c0.59,0.22,1.12,0.5,1.6,0.84c0.48,0.34,0.87,0.75,1.16,1.23
			s0.43,1.07,0.43,1.77v0.06C-1612.56-259.41-1612.71-258.75-1613-258.18z"/>
	</g>
	<g>
		<path class="st7" d="M-1737.4-322.21c-2.91-7.82-10.42-13.41-19.26-13.41c-8.54,0-15.86,5.21-18.97,12.62
			c-1.38-0.46-2.85-0.72-4.38-0.72c-7.66,0-13.87,6.21-13.87,13.87c0,0.88,0.09,1.74,0.25,2.57c-6.23,0.32-11.18,5.46-11.18,11.76
			c0,6.22,4.82,11.31,10.93,11.75v0.04h54.69c5.64,0,10.64-2.68,13.83-6.83c3.1-3.38,5.02-7.86,5.02-12.8
			C-1720.35-313.16-1727.84-321.25-1737.4-322.21z M-1739.31-287.14c-8.93,0-16.2-7.27-16.2-16.2s7.27-16.2,16.2-16.2
			c8.93,0,16.2,7.27,16.2,16.2S-1730.37-287.14-1739.31-287.14z"/>
		<path class="st7" d="M-1733.68-314.81c-2.46,0-4.45,2-4.45,4.45c0,0.59,0.12,1.16,0.33,1.67l-5.95,4.79
			c-0.56-0.35-1.21-0.56-1.92-0.56c-2.03,0-3.69,1.65-3.69,3.69c0,2.03,1.65,3.69,3.69,3.69c0.67,0,1.3-0.2,1.84-0.51l5.15,3.56
			c-0.03,0.15-0.05,0.31-0.05,0.47c0,1.54,1.25,2.8,2.8,2.8c1.54,0,2.8-1.26,2.8-2.8c0-1.54-1.25-2.8-2.8-2.8
			c-0.57,0-1.1,0.17-1.55,0.47l-4.85-3.35c0.21-0.46,0.34-0.98,0.34-1.52c0-0.52-0.11-1.01-0.31-1.46l5.83-4.69
			c0.76,0.62,1.73,1.01,2.79,1.01c2.46,0,4.45-2,4.45-4.45S-1731.22-314.81-1733.68-314.81z M-1745.67-299.29
			c-0.81,0-1.47-0.66-1.47-1.47s0.66-1.47,1.47-1.47c0.81,0,1.47,0.66,1.47,1.47S-1744.86-299.29-1745.67-299.29z M-1735.93-294.15
			c0.32,0,0.58,0.26,0.58,0.58s-0.26,0.58-0.58,0.58c-0.32,0-0.58-0.26-0.58-0.58S-1736.25-294.15-1735.93-294.15z M-1733.68-308.12
			c-1.23,0-2.24-1-2.24-2.24s1-2.24,2.24-2.24c1.23,0,2.24,1,2.24,2.24S-1732.44-308.12-1733.68-308.12z"/>
	</g>
</g>
<line class="st1" x1="-1804.34" y1="-1319.9" x2="-758.34" y2="-1319.9"/>
<g>
	<g>
		<path class="st0" d="M-1338.42-1591.03c0-20.19,15.45-34.77,36.22-34.77c11.01,0,20.48,3.96,26.75,11.3l-8.11,7.63
			c-4.93-5.31-11.01-7.92-18.06-7.92c-14,0-24.15,9.85-24.15,23.76s10.14,23.76,24.15,23.76c7.05,0,13.14-2.61,18.06-8.02l8.11,7.73
			c-6.28,7.34-15.74,11.3-26.85,11.3C-1322.96-1556.25-1338.42-1570.84-1338.42-1591.03z"/>
		<path class="st0" d="M-1217-1587.45v30.23h-11.4v-6.28c-2.9,4.44-8.5,6.95-16.23,6.95c-11.78,0-19.22-6.47-19.22-15.45
			c0-8.6,5.79-15.36,21.44-15.36h13.33v-0.77c0-7.05-4.25-11.2-12.85-11.2c-5.8,0-11.78,1.93-15.65,5.12l-4.73-8.79
			c5.51-4.25,13.52-6.38,21.83-6.38C-1225.6-1609.38-1217-1602.33-1217-1587.45z M-1229.08-1573.35v-5.99h-12.46
			c-8.21,0-10.43,3.09-10.43,6.86c0,4.35,3.67,7.15,9.85,7.15C-1236.23-1565.33-1231.11-1568.04-1229.08-1573.35z"/>
		<path class="st0" d="M-1145.91-1586.78v29.56h-12.07v-28.01c0-9.18-4.54-13.62-12.27-13.62c-8.6,0-14.39,5.22-14.39,15.55v26.08
			h-12.07v-51.58h11.49v6.66c3.96-4.73,10.24-7.24,17.77-7.24C-1155.09-1609.38-1145.91-1602.33-1145.91-1586.78z"/>
		<path class="st0" d="M-1129.49-1583.01c0-15.45,11.59-26.37,27.43-26.37c16.03,0,27.53,10.91,27.53,26.37
			s-11.49,26.47-27.53,26.47C-1117.9-1556.54-1129.49-1567.55-1129.49-1583.01z M-1086.7-1583.01c0-9.85-6.57-16.13-15.36-16.13
			c-8.69,0-15.26,6.28-15.26,16.13s6.57,16.13,15.26,16.13C-1093.27-1566.88-1086.7-1573.16-1086.7-1583.01z"/>
		<path class="st0" d="M-1003.35-1583.01c0,16.03-11.11,26.47-26.18,26.47c-6.57,0-12.36-2.22-16.52-6.95v25.02h-12.07v-70.32h11.49
			v6.76c4.06-4.93,10.04-7.34,17.1-7.34C-1014.46-1609.38-1003.35-1598.95-1003.35-1583.01z M-1015.62-1583.01
			c0-9.85-6.57-16.13-15.26-16.13c-8.69,0-15.36,6.28-15.36,16.13s6.66,16.13,15.36,16.13
			C-1022.18-1566.88-1015.62-1573.16-1015.62-1583.01z"/>
		<path class="st0" d="M-940.18-1608.8l-24.15,55.73c-4.73,11.69-11.3,15.26-19.9,15.26c-5.12,0-10.53-1.74-13.81-4.73l4.83-8.89
			c2.32,2.22,5.6,3.57,8.89,3.57c4.25,0,6.76-2.03,9.08-7.15l0.87-2.03l-22.5-51.77h12.56l16.23,38.15l16.32-38.15H-940.18z"/>
	</g>
	<g>
		<path class="st0" d="M-1379.53-1594.89c0-18.9-14.42-34.49-32.84-36.35c-5.6-15.08-20.11-25.83-37.14-25.83
			c-16.46,0-30.57,10.03-36.56,24.32c-2.66-0.88-5.49-1.38-8.44-1.38c-14.76,0-26.72,11.97-26.72,26.73c0,1.7,0.18,3.35,0.48,4.96
			c-12,0.62-21.54,10.52-21.54,22.67c0,11.99,9.29,21.79,21.06,22.65v0.08h105.38c10.83,0,20.46-5.12,26.61-13.06
			C-1383.22-1576.64-1379.53-1585.34-1379.53-1594.89z M-1384.85-1594.89c0,17.21-14,31.21-31.21,31.21
			c-17.21,0-31.21-14-31.21-31.21s14-31.21,31.21-31.21C-1398.85-1626.11-1384.85-1612.11-1384.85-1594.89z"/>
		<path class="st0" d="M-1432.99-1603.94c0,6,4.8,10.86,10.76,11v0.07c5.78,0.57,10.31,5.39,10.44,11.29
			c-0.08,0.46-0.13,0.93-0.13,1.41c0,4.6,3.73,8.33,8.33,8.33s8.33-3.73,8.33-8.33c0-4.35-3.34-7.92-7.59-8.29
			c-4.94-1.33-8.58-5.82-8.58-11.18c0-0.58,0.06-1.16,0.14-1.72c0.2-0.83,0.32-1.69,0.32-2.58c0-6.08-4.93-11.01-11.01-11.01
			C-1428.06-1614.95-1432.99-1610.02-1432.99-1603.94z M-1416.07-1603.94c0,3.27-2.65,5.91-5.91,5.91s-5.91-2.65-5.91-5.91
			c0-3.27,2.65-5.91,5.91-5.91S-1416.07-1607.2-1416.07-1603.94z"/>
	</g>
</g>
<g>
	<g>
		<path class="st0" d="M-1333.59-1201.98c0-10.15,7.77-17.49,18.22-17.49c5.54,0,10.3,1.99,13.46,5.68l-4.08,3.84
			c-2.48-2.67-5.54-3.98-9.09-3.98c-7.04,0-12.15,4.96-12.15,11.95s5.1,11.95,12.15,11.95c3.55,0,6.61-1.31,9.09-4.03l4.08,3.89
			c-3.16,3.69-7.92,5.68-13.51,5.68C-1325.82-1184.49-1333.59-1191.83-1333.59-1201.98z"/>
		<path class="st0" d="M-1272.52-1200.18v15.21h-5.73v-3.16c-1.46,2.24-4.28,3.5-8.16,3.5c-5.93,0-9.67-3.25-9.67-7.77
			c0-4.32,2.92-7.72,10.79-7.72h6.71v-0.39c0-3.55-2.14-5.64-6.46-5.64c-2.91,0-5.93,0.97-7.87,2.58l-2.38-4.42
			c2.77-2.14,6.8-3.21,10.98-3.21C-1276.84-1211.21-1272.52-1207.67-1272.52-1200.18z M-1278.59-1193.09v-3.01h-6.27
			c-4.13,0-5.25,1.55-5.25,3.45c0,2.19,1.85,3.6,4.96,3.6C-1282.19-1189.06-1279.61-1190.42-1278.59-1193.09z"/>
		<path class="st0" d="M-1236.76-1199.84v14.87h-6.07v-14.09c0-4.62-2.28-6.85-6.17-6.85c-4.32,0-7.24,2.62-7.24,7.82v13.12h-6.07
			v-25.94h5.78v3.35c1.99-2.38,5.15-3.64,8.94-3.64C-1241.37-1211.21-1236.76-1207.67-1236.76-1199.84z"/>
		<path class="st0" d="M-1228.49-1197.95c0-7.77,5.83-13.26,13.8-13.26c8.06,0,13.85,5.49,13.85,13.26s-5.78,13.31-13.85,13.31
			C-1222.66-1184.64-1228.49-1190.18-1228.49-1197.95z M-1206.97-1197.95c0-4.96-3.3-8.11-7.72-8.11c-4.37,0-7.68,3.16-7.68,8.11
			c0,4.96,3.3,8.11,7.68,8.11C-1210.28-1189.84-1206.97-1192.99-1206.97-1197.95z"/>
		<path class="st0" d="M-1165.04-1197.95c0,8.06-5.59,13.31-13.17,13.31c-3.3,0-6.22-1.12-8.31-3.5v12.58h-6.07v-35.37h5.78v3.4
			c2.04-2.48,5.05-3.69,8.6-3.69C-1170.63-1211.21-1165.04-1205.97-1165.04-1197.95z M-1171.21-1197.95c0-4.96-3.3-8.11-7.68-8.11
			c-4.37,0-7.72,3.16-7.72,8.11c0,4.96,3.35,8.11,7.72,8.11C-1174.51-1189.84-1171.21-1192.99-1171.21-1197.95z"/>
		<path class="st0" d="M-1133.26-1210.92l-12.15,28.03c-2.38,5.88-5.69,7.68-10.01,7.68c-2.58,0-5.3-0.88-6.95-2.38l2.43-4.47
			c1.17,1.12,2.82,1.8,4.47,1.8c2.14,0,3.4-1.02,4.57-3.6l0.44-1.02l-11.32-26.04h6.32l8.16,19.19l8.21-19.19H-1133.26z"/>
	</g>
	<g>
		<path class="st0" d="M-1322.68-1162.35h-0.12l-7.65-11.22v16.98h-2.31v-21h2.4l7.65,11.46l7.65-11.46h2.4v21h-2.37v-17.01
			L-1322.68-1162.35z"/>
		<path class="st0" d="M-1300.41-1169.95c-0.75,0.21-1.49,0.49-2.21,0.83l-0.69-1.89c0.86-0.4,1.73-0.71,2.61-0.94
			c0.88-0.23,1.89-0.35,3.03-0.35c2.12,0,3.75,0.53,4.89,1.58s1.71,2.61,1.71,4.67v9.48h-2.22v-2.34c-0.54,0.7-1.26,1.32-2.17,1.86
			s-2.05,0.81-3.44,0.81c-0.72,0-1.42-0.1-2.12-0.3c-0.69-0.2-1.31-0.5-1.86-0.91c-0.55-0.41-0.99-0.92-1.32-1.52
			s-0.49-1.31-0.49-2.13c0-0.82,0.16-1.55,0.48-2.18c0.32-0.63,0.77-1.15,1.36-1.57c0.59-0.42,1.29-0.74,2.1-0.96
			c0.81-0.22,1.71-0.33,2.68-0.33c1,0,1.87,0.06,2.61,0.18c0.74,0.12,1.46,0.28,2.16,0.48v-0.54c0-1.4-0.41-2.45-1.21-3.17
			c-0.81-0.71-1.95-1.06-3.41-1.06C-1298.82-1170.27-1299.66-1170.16-1300.41-1169.95z M-1301.14-1163.58
			c-0.78,0.58-1.17,1.37-1.17,2.37c0,0.5,0.11,0.94,0.31,1.32s0.49,0.7,0.85,0.97c0.36,0.27,0.77,0.48,1.24,0.62
			c0.47,0.14,0.96,0.21,1.48,0.21c0.72,0,1.39-0.1,2.02-0.31c0.63-0.21,1.18-0.5,1.64-0.87c0.47-0.37,0.84-0.81,1.11-1.32
			c0.27-0.51,0.4-1.08,0.4-1.7v-1.5c-0.58-0.16-1.24-0.31-1.99-0.45c-0.75-0.14-1.6-0.21-2.56-0.21
			C-1299.25-1164.45-1300.37-1164.16-1301.14-1163.58z"/>
		<path class="st0" d="M-1280.23-1156.59h-2.31v-15.51h2.31v2.7c0.52-0.84,1.2-1.55,2.04-2.15c0.84-0.59,1.93-0.88,3.27-0.88
			c0.94,0,1.78,0.15,2.51,0.45c0.73,0.3,1.35,0.73,1.86,1.27c0.51,0.55,0.9,1.21,1.17,1.97c0.27,0.76,0.4,1.6,0.4,2.52v9.63h-2.31
			v-9.06c0-1.44-0.37-2.58-1.11-3.42s-1.8-1.26-3.18-1.26c-0.66,0-1.28,0.12-1.84,0.35c-0.57,0.23-1.07,0.56-1.49,0.99
			s-0.74,0.94-0.97,1.54s-0.35,1.26-0.35,1.98V-1156.59z"/>
		<path class="st0" d="M-1257.36-1169.95c-0.75,0.21-1.48,0.49-2.21,0.83l-0.69-1.89c0.86-0.4,1.73-0.71,2.61-0.94
			c0.88-0.23,1.89-0.35,3.03-0.35c2.12,0,3.75,0.53,4.89,1.58s1.71,2.61,1.71,4.67v9.48h-2.22v-2.34c-0.54,0.7-1.27,1.32-2.18,1.86
			s-2.05,0.81-3.43,0.81c-0.72,0-1.43-0.1-2.12-0.3c-0.69-0.2-1.31-0.5-1.86-0.91c-0.55-0.41-0.99-0.92-1.32-1.52
			s-0.5-1.31-0.5-2.13c0-0.82,0.16-1.55,0.48-2.18s0.78-1.15,1.37-1.57c0.59-0.42,1.29-0.74,2.1-0.96c0.81-0.22,1.71-0.33,2.69-0.33
			c1,0,1.87,0.06,2.61,0.18c0.74,0.12,1.46,0.28,2.16,0.48v-0.54c0-1.4-0.4-2.45-1.21-3.17c-0.81-0.71-1.95-1.06-3.4-1.06
			C-1255.77-1170.27-1256.61-1170.16-1257.36-1169.95z M-1258.09-1163.58c-0.78,0.58-1.17,1.37-1.17,2.37c0,0.5,0.1,0.94,0.31,1.32
			s0.49,0.7,0.85,0.97c0.36,0.27,0.77,0.48,1.24,0.62c0.47,0.14,0.96,0.21,1.48,0.21c0.72,0,1.39-0.1,2.02-0.31
			c0.63-0.21,1.18-0.5,1.64-0.87c0.47-0.37,0.84-0.81,1.11-1.32c0.27-0.51,0.4-1.08,0.4-1.7v-1.5c-0.58-0.16-1.24-0.31-1.99-0.45
			c-0.75-0.14-1.6-0.21-2.56-0.21C-1256.2-1164.45-1257.32-1164.16-1258.09-1163.58z"/>
		<path class="st0" d="M-1225.29-1155.99c-0.37,0.94-0.9,1.73-1.59,2.35c-0.69,0.63-1.52,1.1-2.49,1.42
			c-0.97,0.32-2.05,0.48-3.26,0.48c-1.3,0-2.54-0.18-3.72-0.54c-1.18-0.36-2.29-0.9-3.33-1.62l1.05-1.8
			c0.9,0.64,1.84,1.13,2.82,1.47c0.98,0.34,2.03,0.51,3.15,0.51c1.72,0,3.09-0.46,4.11-1.4c1.02-0.93,1.53-2.3,1.53-4.12v-1.83
			c-0.68,0.9-1.51,1.67-2.49,2.31c-0.98,0.64-2.18,0.96-3.6,0.96c-0.94,0-1.84-0.17-2.71-0.49c-0.87-0.33-1.64-0.81-2.32-1.44
			c-0.68-0.63-1.22-1.4-1.63-2.3c-0.41-0.9-0.62-1.92-0.62-3.06c0-1.14,0.21-2.16,0.62-3.07c0.41-0.91,0.96-1.68,1.63-2.31
			s1.46-1.11,2.34-1.46c0.88-0.34,1.78-0.51,2.7-0.51c0.72,0,1.38,0.08,2,0.25c0.61,0.17,1.16,0.4,1.65,0.67
			c0.49,0.28,0.93,0.61,1.33,0.99s0.76,0.78,1.08,1.2v-2.79h2.31v12.81C-1224.73-1158.03-1224.92-1156.93-1225.29-1155.99z
			 M-1227.43-1167.28c-0.32-0.65-0.74-1.21-1.27-1.67c-0.53-0.46-1.14-0.81-1.82-1.06s-1.39-0.38-2.13-0.38s-1.44,0.12-2.09,0.36
			c-0.65,0.24-1.22,0.59-1.71,1.05c-0.49,0.46-0.88,1.02-1.16,1.67c-0.28,0.65-0.42,1.38-0.42,2.18s0.15,1.52,0.44,2.17
			c0.29,0.65,0.68,1.21,1.17,1.68c0.49,0.47,1.06,0.83,1.71,1.08c0.65,0.25,1.33,0.38,2.05,0.38c0.74,0,1.45-0.12,2.13-0.38
			c0.68-0.25,1.29-0.6,1.82-1.06c0.53-0.46,0.96-1.01,1.27-1.67c0.32-0.65,0.48-1.37,0.48-2.17
			C-1226.95-1165.91-1227.11-1166.63-1227.43-1167.28z"/>
		<path class="st0" d="M-1213.96-1161.25c0.32,0.65,0.73,1.2,1.23,1.65c0.5,0.45,1.06,0.79,1.68,1.02c0.62,0.23,1.27,0.35,1.95,0.35
			c1.08,0,2.01-0.2,2.78-0.6c0.77-0.4,1.47-0.93,2.12-1.59l1.44,1.29c-0.78,0.88-1.67,1.58-2.67,2.11s-2.24,0.79-3.72,0.79
			c-1.06,0-2.06-0.19-3-0.58c-0.94-0.39-1.76-0.94-2.47-1.65c-0.71-0.71-1.26-1.56-1.68-2.56c-0.41-1-0.62-2.1-0.62-3.3
			c0-1.12,0.19-2.17,0.55-3.16c0.37-0.99,0.88-1.85,1.54-2.58s1.45-1.31,2.36-1.73s1.91-0.63,2.98-0.63c1.14,0,2.16,0.21,3.06,0.65
			s1.66,1.02,2.28,1.75c0.62,0.74,1.09,1.61,1.41,2.61c0.32,1,0.48,2.07,0.48,3.21c0,0.1,0,0.21,0,0.33s-0.01,0.25-0.03,0.39h-12.27
			C-1214.48-1162.65-1214.28-1161.9-1213.96-1161.25z M-1204.63-1165.2c-0.06-0.7-0.21-1.37-0.43-2.01
			c-0.23-0.64-0.55-1.2-0.95-1.68c-0.41-0.48-0.9-0.87-1.49-1.16c-0.59-0.29-1.27-0.44-2.04-0.44c-0.68,0-1.3,0.14-1.88,0.41
			c-0.58,0.27-1.08,0.64-1.52,1.11c-0.44,0.47-0.79,1.03-1.07,1.67c-0.28,0.64-0.46,1.34-0.54,2.1H-1204.63z"/>
	</g>
	<g>
		<path class="st0" d="M-1351.97-1204.63c0-9.93-7.58-18.12-17.26-19.09c-2.94-7.92-10.55-13.57-19.49-13.57
			c-8.64,0-16.05,5.27-19.2,12.77c-1.39-0.46-2.88-0.73-4.43-0.73c-7.75,0-14.04,6.28-14.04,14.04c0,0.89,0.09,1.76,0.25,2.6
			c-6.3,0.33-11.31,5.52-11.31,11.91c0,6.3,4.88,11.44,11.06,11.89v0.04h55.35c5.71,0,10.77-2.72,14-6.91
			C-1353.9-1195.09-1351.97-1199.63-1351.97-1204.63z M-1354.76-1204.63c0,9.04-7.35,16.39-16.39,16.39s-16.39-7.35-16.39-16.39
			c0-9.04,7.35-16.39,16.39-16.39S-1354.76-1213.67-1354.76-1204.63z"/>
		<path class="st0" d="M-1371.77-1214.61c-0.4,0.19-0.79,0.41-1.16,0.66l-0.81-0.6l-1.91,1.93l0.61,0.81
			c-0.2,0.3-0.38,0.61-0.55,0.94l-1-0.13l-0.73,2.61l0.92,0.41c-0.04,0.4-0.04,0.81-0.01,1.2l-0.94,0.39l0.67,2.63l1.01-0.11
			c0.19,0.4,0.41,0.79,0.66,1.16l-0.6,0.81l1.93,1.91l0.8-0.61c0.3,0.2,0.61,0.38,0.94,0.55l-0.13,1l2.61,0.73l0.41-0.92
			c0.4,0.04,0.81,0.04,1.2,0.01l0.39,0.94l2.63-0.67l-0.11-1.01c0.4-0.19,0.79-0.41,1.16-0.66l0.81,0.6l1.91-1.93l-0.61-0.8
			c0.2-0.3,0.38-0.61,0.55-0.94l1,0.13l0.73-2.61l-0.92-0.41c0.04-0.4,0.04-0.81,0.01-1.2l0.94-0.39l-0.67-2.63l-1.01,0.11
			c-0.19-0.4-0.41-0.79-0.66-1.16l0.6-0.81l-1.93-1.91l-0.8,0.61c-0.3-0.2-0.61-0.38-0.94-0.55l0.13-1l-2.61-0.73l-0.41,0.92
			c-0.4-0.04-0.81-0.04-1.2-0.01l-0.39-0.94l-2.63,0.67L-1371.77-1214.61z M-1366.99-1212.18c2.69,0.75,4.26,3.55,3.51,6.24
			s-3.55,4.26-6.24,3.51c-2.69-0.75-4.26-3.55-3.51-6.24C-1372.48-1211.36-1369.68-1212.94-1366.99-1212.18z"/>
		<path class="st0" d="M-1369.06-1204.8c1.39,0.39,2.82-0.42,3.21-1.81s-0.42-2.82-1.81-3.21s-2.82,0.42-3.21,1.81
			S-1370.45-1205.18-1369.06-1204.8z"/>
		<path class="st0" d="M-1374.23-1198.1l0.23-0.23l-0.4-0.72l-0.36,0.08c-0.16-0.18-0.33-0.35-0.52-0.5l0.09-0.36l-0.71-0.42
			l-0.3,0.29c-0.19-0.06-0.39-0.11-0.6-0.14l-0.12-0.41l-0.83-0.01l-0.13,0.44c-0.2,0.04-0.38,0.1-0.57,0.17l-0.34-0.33l-0.72,0.4
			l0.12,0.51c-0.14,0.12-0.26,0.26-0.38,0.4l-0.51-0.13l-0.42,0.71l0.39,0.41c-0.05,0.15-0.1,0.3-0.12,0.46l-0.52,0.15l-0.01,0.83
			l0.54,0.16c0.03,0.17,0.08,0.33,0.13,0.48l-0.38,0.39l0.4,0.72l0.53-0.12c0.12,0.14,0.24,0.27,0.38,0.4l-0.12,0.5l0.71,0.42
			l0.35-0.33c0.17,0.07,0.35,0.13,0.54,0.17l0.12,0.43l0.83,0.01l0.13-0.42c0.22-0.03,0.42-0.08,0.62-0.15l0.29,0.28l0.72-0.4
			l-0.09-0.37c0.19-0.15,0.36-0.31,0.52-0.5l0.34,0.08l0.42-0.71l-0.23-0.24c0.09-0.22,0.14-0.45,0.18-0.68l0.31-0.09l0.01-0.83
			l-0.32-0.1C-1374.08-1197.64-1374.14-1197.88-1374.23-1198.1z M-1377.24-1195.55c-0.74,0-1.35-0.6-1.35-1.35s0.6-1.35,1.35-1.35
			c0.74,0,1.35,0.6,1.35,1.35S-1376.49-1195.55-1377.24-1195.55z"/>
	</g>
</g>
<g>
	<g>
		<path class="st0" d="M-964.04-1201.98c0-10.15,7.77-17.49,18.22-17.49c5.54,0,10.3,1.99,13.46,5.68l-4.08,3.84
			c-2.48-2.67-5.54-3.98-9.08-3.98c-7.04,0-12.15,4.96-12.15,11.95s5.1,11.95,12.15,11.95c3.55,0,6.61-1.31,9.08-4.03l4.08,3.89
			c-3.16,3.69-7.92,5.68-13.51,5.68C-956.27-1184.49-964.04-1191.83-964.04-1201.98z"/>
		<path class="st0" d="M-902.97-1200.18v15.21h-5.73v-3.16c-1.46,2.24-4.28,3.5-8.16,3.5c-5.93,0-9.67-3.25-9.67-7.77
			c0-4.32,2.92-7.72,10.79-7.72h6.71v-0.39c0-3.55-2.14-5.64-6.46-5.64c-2.92,0-5.93,0.97-7.87,2.58l-2.38-4.42
			c2.77-2.14,6.8-3.21,10.98-3.21C-907.29-1211.21-902.97-1207.67-902.97-1200.18z M-909.04-1193.09v-3.01h-6.27
			c-4.13,0-5.25,1.55-5.25,3.45c0,2.19,1.85,3.6,4.96,3.6C-912.64-1189.06-910.06-1190.42-909.04-1193.09z"/>
		<path class="st0" d="M-867.21-1199.84v14.87h-6.07v-14.09c0-4.62-2.28-6.85-6.17-6.85c-4.32,0-7.24,2.62-7.24,7.82v13.12h-6.07
			v-25.94h5.78v3.35c1.99-2.38,5.15-3.64,8.94-3.64C-871.82-1211.21-867.21-1207.67-867.21-1199.84z"/>
		<path class="st0" d="M-858.95-1197.95c0-7.77,5.83-13.26,13.8-13.26c8.07,0,13.85,5.49,13.85,13.26s-5.78,13.31-13.85,13.31
			C-853.12-1184.64-858.95-1190.18-858.95-1197.95z M-837.42-1197.95c0-4.96-3.3-8.11-7.73-8.11c-4.37,0-7.68,3.16-7.68,8.11
			c0,4.96,3.3,8.11,7.68,8.11C-840.73-1189.84-837.42-1192.99-837.42-1197.95z"/>
		<path class="st0" d="M-795.49-1197.95c0,8.06-5.59,13.31-13.17,13.31c-3.3,0-6.22-1.12-8.31-3.5v12.58h-6.07v-35.37h5.78v3.4
			c2.04-2.48,5.05-3.69,8.6-3.69C-801.08-1211.21-795.49-1205.97-795.49-1197.95z M-801.66-1197.95c0-4.96-3.3-8.11-7.68-8.11
			s-7.72,3.16-7.72,8.11c0,4.96,3.35,8.11,7.72,8.11S-801.66-1192.99-801.66-1197.95z"/>
		<path class="st0" d="M-763.72-1210.92l-12.15,28.03c-2.38,5.88-5.68,7.68-10.01,7.68c-2.57,0-5.29-0.88-6.95-2.38l2.43-4.47
			c1.17,1.12,2.82,1.8,4.47,1.8c2.14,0,3.4-1.02,4.57-3.6l0.44-1.02l-11.32-26.04h6.32l8.16,19.19l8.21-19.19H-763.72z"/>
	</g>
	<g>
		<path class="st0" d="M-961.14-1171.01c0.16,0.4,0.45,0.77,0.87,1.1s1,0.63,1.74,0.9c0.74,0.27,1.69,0.53,2.85,0.77
			c2.34,0.52,4.07,1.24,5.17,2.16c1.11,0.92,1.67,2.19,1.67,3.82c0,0.9-0.18,1.72-0.53,2.46c-0.36,0.74-0.85,1.37-1.47,1.89
			c-0.62,0.52-1.38,0.92-2.26,1.2c-0.88,0.28-1.84,0.42-2.88,0.42c-1.68,0-3.22-0.27-4.61-0.81s-2.71-1.38-3.97-2.52l1.47-1.74
			c1.1,1,2.21,1.75,3.33,2.23c1.12,0.49,2.41,0.74,3.87,0.74c1.42,0,2.55-0.33,3.41-0.99c0.85-0.66,1.27-1.53,1.27-2.61
			c0-0.5-0.08-0.95-0.24-1.34c-0.16-0.39-0.44-0.75-0.84-1.07c-0.4-0.32-0.96-0.61-1.67-0.87c-0.71-0.26-1.62-0.51-2.72-0.75
			c-1.2-0.26-2.25-0.56-3.14-0.9c-0.89-0.34-1.63-0.75-2.21-1.23c-0.58-0.48-1.01-1.04-1.29-1.68c-0.28-0.64-0.42-1.4-0.42-2.28
			c0-0.84,0.17-1.61,0.51-2.31c0.34-0.7,0.82-1.31,1.44-1.82c0.62-0.51,1.35-0.91,2.19-1.2c0.84-0.29,1.76-0.44,2.76-0.44
			c1.54,0,2.88,0.21,4.04,0.64c1.15,0.42,2.26,1.06,3.34,1.91l-1.38,1.83c-0.98-0.8-1.96-1.38-2.96-1.74
			c-0.99-0.36-2.03-0.54-3.11-0.54c-0.68,0-1.29,0.09-1.84,0.27c-0.55,0.18-1.02,0.42-1.41,0.72c-0.39,0.3-0.69,0.66-0.9,1.08
			c-0.21,0.42-0.32,0.87-0.32,1.35C-961.38-1171.86-961.3-1171.41-961.14-1171.01z"/>
		<path class="st0" d="M-938.79-1161.25c0.32,0.65,0.73,1.2,1.23,1.65c0.5,0.45,1.06,0.79,1.68,1.02c0.62,0.23,1.27,0.35,1.95,0.35
			c1.08,0,2-0.2,2.77-0.6c0.77-0.4,1.47-0.93,2.12-1.59l1.44,1.29c-0.78,0.88-1.67,1.58-2.67,2.11c-1,0.53-2.24,0.79-3.72,0.79
			c-1.06,0-2.06-0.19-3-0.58s-1.76-0.94-2.47-1.65c-0.71-0.71-1.26-1.56-1.68-2.56c-0.42-1-0.62-2.1-0.62-3.3
			c0-1.12,0.18-2.17,0.55-3.16c0.37-0.99,0.88-1.85,1.54-2.58s1.45-1.31,2.36-1.73c0.91-0.42,1.91-0.63,2.98-0.63
			c1.14,0,2.16,0.21,3.06,0.65c0.9,0.43,1.66,1.02,2.28,1.75c0.62,0.74,1.09,1.61,1.41,2.61c0.32,1,0.48,2.07,0.48,3.21
			c0,0.1,0,0.21,0,0.33s-0.01,0.25-0.03,0.39h-12.27C-939.31-1162.65-939.11-1161.9-938.79-1161.25z M-929.46-1165.2
			c-0.06-0.7-0.2-1.37-0.43-2.01c-0.23-0.64-0.55-1.2-0.95-1.68s-0.9-0.87-1.49-1.16c-0.59-0.29-1.27-0.44-2.04-0.44
			c-0.68,0-1.3,0.14-1.88,0.41c-0.58,0.27-1.08,0.64-1.52,1.11c-0.44,0.47-0.8,1.03-1.07,1.67c-0.28,0.64-0.46,1.34-0.54,2.1
			H-929.46z"/>
		<path class="st0" d="M-908.78-1157.08c-0.99,0.57-2.22,0.85-3.67,0.85c-1.14,0-2.2-0.21-3.17-0.65c-0.97-0.43-1.81-1.01-2.52-1.74
			s-1.26-1.58-1.67-2.56s-0.6-2.02-0.6-3.12c0-1.1,0.2-2.15,0.6-3.14c0.4-0.99,0.96-1.85,1.67-2.59c0.71-0.74,1.55-1.32,2.52-1.75
			c0.97-0.43,2.02-0.65,3.17-0.65c0.74,0,1.41,0.07,2.01,0.21c0.6,0.14,1.15,0.33,1.65,0.58c0.5,0.25,0.96,0.54,1.38,0.88
			c0.42,0.34,0.81,0.7,1.17,1.08l-1.53,1.62c-0.62-0.64-1.29-1.19-2.03-1.65c-0.73-0.46-1.62-0.69-2.68-0.69
			c-0.78,0-1.51,0.15-2.19,0.46s-1.27,0.74-1.77,1.29s-0.89,1.19-1.17,1.92c-0.28,0.73-0.42,1.51-0.42,2.35
			c0,0.84,0.14,1.63,0.43,2.36s0.69,1.38,1.2,1.93s1.11,0.98,1.8,1.29c0.69,0.31,1.45,0.46,2.27,0.46c1,0,1.88-0.22,2.65-0.66
			s1.46-0.99,2.08-1.65l1.47,1.38C-906.9-1158.37-907.79-1157.65-908.78-1157.08z"/>
		<path class="st0" d="M-887.7-1172.1h2.28v15.51h-2.28v-2.7c-0.52,0.84-1.2,1.56-2.04,2.15c-0.84,0.59-1.93,0.89-3.27,0.89
			c-0.94,0-1.78-0.15-2.5-0.45c-0.73-0.3-1.35-0.72-1.86-1.27c-0.51-0.55-0.9-1.2-1.17-1.96c-0.27-0.76-0.41-1.6-0.41-2.52v-9.63
			h2.31v9.06c0,1.44,0.37,2.58,1.11,3.42c0.74,0.84,1.8,1.26,3.18,1.26c0.66,0,1.27-0.11,1.84-0.35c0.57-0.23,1.06-0.56,1.47-0.99
			c0.41-0.43,0.74-0.94,0.98-1.54c0.24-0.6,0.36-1.26,0.36-1.98V-1172.1z"/>
		<path class="st0" d="M-874.32-1156.59h-2.31v-15.51h2.31v4.05c0.28-0.64,0.63-1.23,1.05-1.77c0.42-0.54,0.9-1,1.44-1.4
			s1.13-0.69,1.77-0.88c0.64-0.2,1.33-0.29,2.07-0.27v2.49h-0.18c-0.84,0-1.63,0.15-2.38,0.45c-0.75,0.3-1.41,0.75-1.96,1.35
			c-0.56,0.6-1,1.35-1.32,2.24c-0.32,0.89-0.48,1.92-0.48,3.07V-1156.59z"/>
		<path class="st0" d="M-859.53-1161.25c0.32,0.65,0.73,1.2,1.23,1.65c0.5,0.45,1.06,0.79,1.68,1.02c0.62,0.23,1.27,0.35,1.95,0.35
			c1.08,0,2-0.2,2.77-0.6c0.77-0.4,1.47-0.93,2.12-1.59l1.44,1.29c-0.78,0.88-1.67,1.58-2.67,2.11c-1,0.53-2.24,0.79-3.72,0.79
			c-1.06,0-2.06-0.19-3-0.58s-1.76-0.94-2.47-1.65c-0.71-0.71-1.26-1.56-1.68-2.56c-0.42-1-0.62-2.1-0.62-3.3
			c0-1.12,0.18-2.17,0.55-3.16c0.37-0.99,0.88-1.85,1.54-2.58s1.45-1.31,2.36-1.73c0.91-0.42,1.91-0.63,2.98-0.63
			c1.14,0,2.16,0.21,3.06,0.65c0.9,0.43,1.66,1.02,2.28,1.75c0.62,0.74,1.09,1.61,1.41,2.61c0.32,1,0.48,2.07,0.48,3.21
			c0,0.1,0,0.21,0,0.33s-0.01,0.25-0.03,0.39h-12.27C-860.05-1162.65-859.85-1161.9-859.53-1161.25z M-850.2-1165.2
			c-0.06-0.7-0.2-1.37-0.43-2.01c-0.23-0.64-0.55-1.2-0.95-1.68s-0.9-0.87-1.49-1.16c-0.59-0.29-1.27-0.44-2.04-0.44
			c-0.68,0-1.3,0.14-1.88,0.41c-0.58,0.27-1.08,0.64-1.52,1.11c-0.44,0.47-0.8,1.03-1.07,1.67c-0.28,0.64-0.46,1.34-0.54,2.1H-850.2
			z"/>
	</g>
	<g>
		<path class="st0" d="M-984.72-1204.63c0-9.93-7.58-18.12-17.26-19.09c-2.94-7.92-10.55-13.57-19.49-13.57
			c-8.64,0-16.05,5.27-19.2,12.77c-1.39-0.46-2.88-0.73-4.43-0.73c-7.75,0-14.04,6.28-14.04,14.04c0,0.89,0.09,1.76,0.25,2.6
			c-6.3,0.33-11.31,5.52-11.31,11.91c0,6.3,4.88,11.44,11.06,11.89v0.04h55.35c5.71,0,10.77-2.72,14-6.91
			C-986.65-1195.09-984.72-1199.63-984.72-1204.63z M-987.51-1204.63c0,9.04-7.35,16.39-16.39,16.39c-9.04,0-16.39-7.35-16.39-16.39
			c0-9.04,7.35-16.39,16.39-16.39C-994.87-1221.02-987.51-1213.67-987.51-1204.63z"/>
		<path class="st0" d="M-1009.88-1211.28v1.95h-0.84c-0.28,0-0.5,0.22-0.5,0.5v13.62c0,0.28,0.22,0.5,0.5,0.5h13.62
			c0.28,0,0.5-0.22,0.5-0.5v-13.62c0-0.28-0.22-0.5-0.5-0.5h-0.69v-1.95c0-2.78-2.26-5.04-5.04-5.04h-2
			C-1007.61-1216.33-1009.88-1214.06-1009.88-1211.28z M-999.46-1197.58h-8.89v-8.89h8.89V-1197.58z M-1000.65-1211.28v1.95h-6.36
			v-1.95c0-1.2,0.98-2.18,2.18-2.18h2C-1001.63-1213.46-1000.65-1212.48-1000.65-1211.28z"/>
	</g>
</g>
<g>
	<g>
		<path class="st0" d="M-1700.36-1201.99c0-10.04,7.68-17.29,18.01-17.29c5.47,0,10.18,1.97,13.3,5.62l-4.03,3.79
			c-2.45-2.64-5.47-3.94-8.98-3.94c-6.96,0-12,4.9-12,11.81c0,6.91,5.04,11.81,12,11.81c3.51,0,6.53-1.3,8.98-3.99l4.03,3.84
			c-3.12,3.65-7.83,5.62-13.35,5.62C-1692.68-1184.7-1700.36-1191.95-1700.36-1201.99z"/>
		<path class="st0" d="M-1640.01-1200.21v15.03h-5.67v-3.12c-1.44,2.21-4.23,3.46-8.07,3.46c-5.86,0-9.56-3.22-9.56-7.68
			c0-4.27,2.88-7.63,10.66-7.63h6.63v-0.38c0-3.51-2.11-5.57-6.39-5.57c-2.88,0-5.86,0.96-7.78,2.54l-2.35-4.37
			c2.74-2.11,6.72-3.17,10.85-3.17C-1644.28-1211.11-1640.01-1207.61-1640.01-1200.21z M-1646.01-1193.2v-2.98h-6.19
			c-4.08,0-5.19,1.54-5.19,3.41c0,2.16,1.82,3.55,4.9,3.55C-1649.56-1189.21-1647.02-1190.56-1646.01-1193.2z"/>
		<path class="st0" d="M-1604.67-1199.87v14.69h-6v-13.93c0-4.56-2.26-6.77-6.1-6.77c-4.27,0-7.16,2.59-7.16,7.73v12.97h-6v-25.64
			h5.71v3.31c1.97-2.35,5.09-3.6,8.84-3.6C-1609.23-1211.11-1604.67-1207.61-1604.67-1199.87z"/>
		<path class="st0" d="M-1596.51-1198c0-7.68,5.76-13.11,13.64-13.11c7.97,0,13.69,5.43,13.69,13.11s-5.71,13.16-13.69,13.16
			C-1590.75-1184.84-1596.51-1190.32-1596.51-1198z M-1575.24-1198c0-4.9-3.27-8.02-7.63-8.02c-4.32,0-7.59,3.12-7.59,8.02
			s3.27,8.02,7.59,8.02C-1578.5-1189.98-1575.24-1193.1-1575.24-1198z"/>
		<path class="st0" d="M-1533.8-1198c0,7.97-5.52,13.16-13.01,13.16c-3.27,0-6.15-1.1-8.21-3.46v12.44h-6v-34.96h5.71v3.36
			c2.02-2.45,4.99-3.65,8.5-3.65C-1539.32-1211.11-1533.8-1205.92-1533.8-1198z M-1539.9-1198c0-4.9-3.27-8.02-7.59-8.02
			s-7.64,3.12-7.64,8.02s3.31,8.02,7.64,8.02S-1539.9-1193.1-1539.9-1198z"/>
		<path class="st0" d="M-1502.4-1210.82l-12,27.71c-2.35,5.81-5.62,7.59-9.89,7.59c-2.54,0-5.23-0.86-6.87-2.35l2.4-4.42
			c1.15,1.1,2.79,1.78,4.42,1.78c2.11,0,3.36-1.01,4.51-3.55l0.43-1.01l-11.19-25.74h6.24l8.07,18.97l8.12-18.97H-1502.4z"/>
	</g>
	<g>
		<path class="st0" d="M-1691.58-1157.12h-2.37v-18.81h-7.05v-2.19h16.47v2.19h-7.05V-1157.12z"/>
		<path class="st0" d="M-1666.07-1161.76c-0.41,0.99-0.97,1.85-1.7,2.59c-0.72,0.74-1.58,1.33-2.58,1.75
			c-1,0.43-2.08,0.65-3.24,0.65c-1.16,0-2.23-0.21-3.21-0.65c-0.98-0.43-1.83-1.01-2.55-1.74c-0.72-0.73-1.28-1.58-1.68-2.56
			s-0.6-2.02-0.6-3.12c0-1.1,0.2-2.15,0.6-3.14c0.4-0.99,0.96-1.85,1.68-2.59c0.72-0.74,1.58-1.32,2.57-1.75
			c0.99-0.43,2.08-0.65,3.25-0.65c1.16,0,2.24,0.21,3.22,0.65c0.99,0.43,1.85,1.01,2.57,1.74c0.72,0.73,1.28,1.59,1.68,2.56
			c0.4,0.98,0.6,2.02,0.6,3.12C-1665.45-1163.79-1665.66-1162.75-1666.07-1161.76z M-1668.26-1167.21c-0.29-0.74-0.7-1.38-1.21-1.93
			c-0.52-0.55-1.13-0.98-1.83-1.3c-0.7-0.32-1.46-0.48-2.28-0.48c-0.84,0-1.61,0.15-2.31,0.46c-0.7,0.31-1.3,0.74-1.79,1.29
			c-0.49,0.55-0.88,1.19-1.16,1.92s-0.42,1.51-0.42,2.35c0,0.84,0.14,1.63,0.43,2.36s0.69,1.38,1.2,1.92s1.11,0.97,1.82,1.29
			c0.7,0.32,1.46,0.48,2.28,0.48c0.84,0,1.61-0.15,2.31-0.46c0.7-0.31,1.3-0.73,1.8-1.27c0.5-0.54,0.89-1.17,1.17-1.9
			c0.28-0.73,0.42-1.51,0.42-2.35C-1667.82-1165.69-1667.97-1166.48-1668.26-1167.21z"/>
		<path class="st0" d="M-1643.09-1161.76c-0.41,0.99-0.97,1.85-1.7,2.59c-0.72,0.74-1.58,1.33-2.58,1.75
			c-1,0.43-2.08,0.65-3.24,0.65s-2.23-0.21-3.21-0.65c-0.98-0.43-1.83-1.01-2.55-1.74c-0.72-0.73-1.28-1.58-1.68-2.56
			c-0.4-0.98-0.6-2.02-0.6-3.12c0-1.1,0.2-2.15,0.6-3.14c0.4-0.99,0.96-1.85,1.68-2.59c0.72-0.74,1.58-1.32,2.56-1.75
			c0.99-0.43,2.08-0.65,3.26-0.65c1.16,0,2.23,0.21,3.22,0.65s1.85,1.01,2.56,1.74c0.72,0.73,1.28,1.59,1.68,2.56
			c0.4,0.98,0.6,2.02,0.6,3.12C-1642.47-1163.79-1642.68-1162.75-1643.09-1161.76z M-1645.28-1167.21
			c-0.29-0.74-0.69-1.38-1.21-1.93c-0.52-0.55-1.13-0.98-1.83-1.3c-0.7-0.32-1.46-0.48-2.28-0.48c-0.84,0-1.61,0.15-2.31,0.46
			s-1.3,0.74-1.79,1.29c-0.49,0.55-0.88,1.19-1.16,1.92c-0.28,0.73-0.42,1.51-0.42,2.35c0,0.84,0.14,1.63,0.44,2.36
			c0.29,0.74,0.69,1.38,1.2,1.92s1.12,0.97,1.82,1.29c0.7,0.32,1.46,0.48,2.28,0.48c0.84,0,1.61-0.15,2.31-0.46s1.3-0.73,1.8-1.27
			c0.5-0.54,0.89-1.17,1.17-1.9c0.28-0.73,0.42-1.51,0.42-2.35C-1644.84-1165.69-1644.99-1166.48-1645.28-1167.21z"/>
		<path class="st0" d="M-1634.49-1157.12v-21.9h2.31v21.9H-1634.49z"/>
		<path class="st0" d="M-1613-1159.51c-0.29,0.57-0.68,1.05-1.17,1.45c-0.49,0.4-1.07,0.71-1.74,0.92s-1.39,0.31-2.17,0.31
			c-1.12,0-2.25-0.21-3.39-0.61c-1.14-0.41-2.15-0.96-3.03-1.67l1.17-1.65c0.84,0.64,1.71,1.13,2.62,1.47
			c0.91,0.34,1.82,0.51,2.75,0.51c0.94,0,1.71-0.22,2.31-0.66c0.6-0.44,0.9-1.04,0.9-1.8v-0.06c0-0.38-0.11-0.71-0.31-0.99
			c-0.21-0.28-0.5-0.52-0.86-0.73c-0.36-0.21-0.78-0.39-1.25-0.56c-0.47-0.16-0.96-0.31-1.46-0.45c-0.6-0.18-1.21-0.38-1.82-0.58
			c-0.61-0.21-1.16-0.48-1.65-0.79c-0.49-0.32-0.89-0.72-1.2-1.2s-0.46-1.08-0.46-1.8v-0.06c0-0.66,0.13-1.26,0.39-1.81
			c0.26-0.55,0.62-1.02,1.09-1.41c0.47-0.39,1.03-0.69,1.68-0.9c0.65-0.21,1.35-0.31,2.11-0.31c0.96,0,1.93,0.15,2.91,0.46
			c0.98,0.31,1.87,0.73,2.67,1.25l-1.05,1.74c-0.72-0.46-1.48-0.82-2.27-1.09s-1.56-0.41-2.33-0.41c-0.92,0-1.65,0.22-2.19,0.65
			c-0.54,0.43-0.81,0.97-0.81,1.6v0.06c0,0.36,0.11,0.67,0.33,0.94s0.51,0.51,0.89,0.71c0.37,0.2,0.79,0.38,1.27,0.54
			c0.48,0.16,0.98,0.32,1.5,0.48c0.6,0.18,1.19,0.38,1.79,0.6c0.59,0.22,1.12,0.5,1.6,0.84c0.48,0.34,0.87,0.75,1.16,1.23
			s0.43,1.07,0.43,1.77v0.06C-1612.56-1160.73-1612.71-1160.08-1613-1159.51z"/>
	</g>
	<g>
		<path class="st0" d="M-1737.4-1223.54c-2.91-7.82-10.42-13.41-19.26-13.41c-8.54,0-15.86,5.21-18.97,12.62
			c-1.38-0.46-2.85-0.72-4.38-0.72c-7.66,0-13.87,6.21-13.87,13.87c0,0.88,0.09,1.74,0.25,2.57c-6.23,0.32-11.18,5.46-11.18,11.76
			c0,6.22,4.82,11.31,10.93,11.75v0.04h54.69c5.64,0,10.64-2.68,13.83-6.83c3.1-3.38,5.02-7.86,5.02-12.8
			C-1720.35-1214.48-1727.84-1222.58-1737.4-1223.54z M-1739.31-1188.47c-8.93,0-16.2-7.27-16.2-16.2s7.27-16.2,16.2-16.2
			c8.93,0,16.2,7.27,16.2,16.2S-1730.37-1188.47-1739.31-1188.47z"/>
		<path class="st0" d="M-1733.68-1216.14c-2.46,0-4.45,2-4.45,4.45c0,0.59,0.12,1.16,0.33,1.67l-5.95,4.79
			c-0.56-0.35-1.21-0.56-1.92-0.56c-2.03,0-3.69,1.65-3.69,3.69c0,2.03,1.65,3.69,3.69,3.69c0.67,0,1.3-0.2,1.84-0.51l5.15,3.56
			c-0.03,0.15-0.05,0.31-0.05,0.47c0,1.54,1.25,2.8,2.8,2.8c1.54,0,2.8-1.26,2.8-2.8c0-1.54-1.25-2.8-2.8-2.8
			c-0.57,0-1.1,0.17-1.55,0.47l-4.85-3.35c0.21-0.46,0.34-0.98,0.34-1.52c0-0.52-0.11-1.01-0.31-1.46l5.83-4.69
			c0.76,0.62,1.73,1.01,2.79,1.01c2.46,0,4.45-2,4.45-4.45S-1731.22-1216.14-1733.68-1216.14z M-1745.67-1200.62
			c-0.81,0-1.47-0.66-1.47-1.47s0.66-1.47,1.47-1.47c0.81,0,1.47,0.66,1.47,1.47S-1744.86-1200.62-1745.67-1200.62z
			 M-1735.93-1195.48c0.32,0,0.58,0.26,0.58,0.58s-0.26,0.58-0.58,0.58c-0.32,0-0.58-0.26-0.58-0.58
			S-1736.25-1195.48-1735.93-1195.48z M-1733.68-1209.45c-1.23,0-2.24-1-2.24-2.24s1-2.24,2.24-2.24c1.23,0,2.24,1,2.24,2.24
			S-1732.44-1209.45-1733.68-1209.45z"/>
	</g>
</g>
</svg>
