<?xml version="1.0" encoding="UTF-8" standalone="no"?>
<svg
   xmlns:dc="http://purl.org/dc/elements/1.1/"
   xmlns:cc="http://creativecommons.org/ns#"
   xmlns:rdf="http://www.w3.org/1999/02/22-rdf-syntax-ns#"
   xmlns:svg="http://www.w3.org/2000/svg"
   xmlns="http://www.w3.org/2000/svg"
   viewBox="0 0 194.85333 127.09333"
   height="127.09333"
   width="194.85333"
   xml:space="preserve"
   id="svg2"
   version="1.1"><metadata
     id="metadata8"><rdf:RDF><cc:Work
         rdf:about=""><dc:format>image/svg+xml</dc:format><dc:type
           rdf:resource="http://purl.org/dc/dcmitype/StillImage" /></cc:Work></rdf:RDF></metadata><defs
     id="defs6" /><g
     transform="matrix(1.3333333,0,0,-1.3333333,0,127.09333)"
     id="g10"><g
       transform="scale(0.1)"
       id="g12"><path
         id="path14"
         style="fill:#ffffff;fill-opacity:1;fill-rule:nonzero;stroke:none"
         d="m 257,307.5 c -29.715,-12.742 -61.891,-18.723 -94.199,-17.5 -50.602,0 -90.4026,14.867 -119.4026,44.602 -29,29.73 -43.4648063,69.23 -43.3984,118.5 0,52.73 16.3008,95.464 48.8984,128.199 33.6055,33.23 79.4806,51.043 126.7036,49.199 27.628,0.723 55.171,-3.371 81.398,-12.102 v -71.5 c -22.836,13.43 -48.91,20.348 -75.398,20 -27.954,1.172 -55.118,-9.418 -74.903,-29.199 -19.7576,-21.414 -30.0349,-49.902 -28.4998,-79 -1.457,-27.957 8.2149,-55.351 26.9028,-76.199 18.945,-19.406 45.308,-29.75 72.398,-28.398 28.09,-0.372 55.746,6.921 80,21.097 L 257,307.5" /><path
         id="path16"
         style="fill:#ffffff;fill-opacity:1;fill-rule:nonzero;stroke:none"
         d="m 307.301,531.199 h 72.597 V 295.801 h -72.597 v 235.398" /><path
         id="path18"
         style="fill:#ffffff;fill-opacity:1;fill-rule:nonzero;stroke:none"
         d="m 581.102,465.699 c -9.262,4.805 -19.571,7.242 -30,7.102 -14.45,0.648 -28.286,-5.86 -37,-17.403 C 504.246,441.688 499.281,425.066 500,408.199 V 295.801 H 427.602 V 531.199 H 500 V 487.5 h 0.898 c 11.469,31.934 32.168,47.867 62.102,47.801 6.086,0.258 12.16,-0.66 17.898,-2.699 l 0.204,-66.903" /><path
         id="path20"
         style="fill:#ffffff;fill-opacity:1;fill-rule:nonzero;stroke:none"
         d="m 768.5,465.699 c -9.422,4.989 -19.941,7.531 -30.602,7.403 -14.441,0.628 -28.273,-5.875 -37,-17.403 -9.566,-13.812 -14.246,-30.426 -13.296,-47.199 V 295.801 h -72.704 v 235.398 h 72.704 V 487.5 h 0.898 c 11.535,31.934 32.234,47.867 62.102,47.801 6.082,0.246 12.16,-0.668 17.898,-2.699 v -66.903" /><path
         id="path22"
         style="fill:#ffffff;fill-opacity:1;fill-rule:nonzero;stroke:none"
         d="m 1027.3,295.801 h -72.402 v 35.801 h -1.097 C 939.07,305.754 911.551,289.852 881.801,290 827.266,290 800,323.031 800,389.102 v 142.097 h 72.398 V 395.5 c 0,-33.332 13.336,-50 40,-50 11.965,-0.484 23.493,4.523 31.301,13.602 8.274,10.574 12.43,23.793 11.699,37.199 v 134.898 h 72.402 l -0.5,-235.398" /><path
         id="path24"
         style="fill:#ffffff;fill-opacity:1;fill-rule:nonzero;stroke:none"
         d="m 1073.1,302 v 58.801 c 11.18,-6.844 23.17,-12.254 35.7,-16.102 10.93,-3.336 22.28,-5.09 33.7,-5.199 10.26,-0.414 20.48,1.355 30,5.199 6.75,2.481 11.22,8.914 11.2,16.102 0.11,4.402 -1.76,8.625 -5.1,11.5 -3.82,3.398 -8.18,6.133 -12.9,8.097 -5.68,2.403 -11.49,4.473 -17.4,6.204 -6.3,1.796 -12.3,3.898 -18.2,6.199 -8.52,3.144 -16.78,6.957 -24.7,11.398 -6.71,3.676 -12.76,8.442 -17.9,14.102 -4.84,5.429 -8.57,11.746 -11,18.597 -2.73,8.082 -4.01,16.579 -3.8,25.102 -0.36,11.914 2.62,23.691 8.6,34 5.69,9.492 13.58,17.484 23,23.301 10.22,6.496 21.48,11.168 33.3,13.801 12.6,2.832 25.48,4.242 38.4,4.199 10.64,-0.016 21.27,-0.817 31.8,-2.403 10.72,-1.582 21.31,-3.921 31.7,-7 v -56.097 c -9.26,5.117 -19.19,8.922 -29.5,11.301 -10.12,2.632 -20.54,3.976 -31,4 -4.5,0.035 -8.99,-0.399 -13.4,-1.301 -3.88,-0.703 -7.64,-1.91 -11.2,-3.602 -2.95,-1.457 -5.51,-3.578 -7.5,-6.199 -1.86,-2.516 -2.84,-5.57 -2.8,-8.699 -0.07,-4.055 1.4,-7.981 4.1,-11 3.07,-3.285 6.74,-5.965 10.8,-7.903 4.78,-2.425 9.77,-4.433 14.9,-6 L 1190.1,437 c 8.95,-3.129 17.7,-6.805 26.2,-11 7.32,-3.695 14.06,-8.445 20,-14.102 5.62,-5.273 10.05,-11.683 13,-18.796 3.19,-8.223 4.71,-16.989 4.5,-25.801 0.33,-12.516 -2.82,-24.871 -9.1,-35.699 -6.03,-9.852 -14.33,-18.114 -24.2,-24.102 -10.67,-6.543 -22.42,-11.148 -34.7,-13.602 -13.41,-2.867 -27.09,-4.304 -40.8,-4.296 -24.51,-0.118 -48.85,4.082 -71.9,12.398" /><path
         id="path26"
         style="fill:#ffffff;fill-opacity:1;fill-rule:nonzero;stroke:none"
         d="m 1219.4,718 c -59.03,179.418 -252.334,277.012 -431.755,217.98 -73.426,-24.16 -136.5,-72.476 -178.946,-137.082 -16.07,2.868 -32.371,4.274 -48.699,4.204 -55.211,0.074 -109.059,-17.133 -154,-49.204 l -61.602,53.5 11.903,-171.296 171.398,11.796 -58.898,51.301 c 27.832,15.696 59.246,23.93 91.199,23.903 18.887,-0.032 37.664,-2.895 55.699,-8.5 l 31.602,-10 15.597,29.199 c 45.45,85.738 134.563,139.34 231.602,139.297 119.99,-1.075 224.3,-82.618 254.3,-198.797 l 6.3,-25.199 25.5,-4.5 C 1312.93,621.258 1401.28,495.059 1377.93,362.73 1357.39,246.301 1256.13,161.488 1137.9,161.699 H 1040 V 81.6992 h 98.2 c 178.61,0.1328 323.29,145.0308 323.16,323.6368 -0.11,147.043 -99.39,275.5 -241.66,312.664 h -0.3" /><path
         id="path28"
         style="fill:#ffffff;fill-opacity:1;fill-rule:nonzero;stroke:none"
         d="M 1010,121.699 889,243.102 v -81.5 H 383.602 C 319,161.699 267.398,183.102 230,224.699 c -4.301,4.903 -8.301,10 -12.102,15.199 h -91.296 c 11.027,-24.921 25.836,-47.992 43.898,-68.398 52.199,-58.801 125.898,-90 213.102,-90 L 889,81.5 V 0 l 121,121.699" /></g></g></svg>