<svg xmlns="http://www.w3.org/2000/svg" width="784.073" height="257.255" viewBox="0 0 784.073 257.255">
  <g id="Сгруппировать_6" data-name="Сгруппировать 6" transform="translate(-839.383 -376.146)">
    <g id="Сгруппировать_5" data-name="Сгруппировать 5">
      <g id="Сгруппировать_4" data-name="Сгруппировать 4">
        <path id="Контур_15" data-name="Контур 15" d="M839.383,617.437l13.476-30.289a91.585,91.585,0,0,0,47.911,14.316c17.014,0,23.647-4.772,23.647-11.829,0-23.02-82.547-6.217-82.547-60.143,0-25.932,21.16-47.082,64.3-47.082,18.875,0,38.367,4.358,52.683,12.648l-12.658,30.491c-13.891-7.461-27.58-11.2-40.237-11.2-17.207,0-23.435,5.813-23.435,13.072,0,22.191,82.345,5.6,82.345,59.112,0,25.3-21.16,46.87-64.3,46.87C876.718,633.4,853.071,626.971,839.383,617.437Z" fill="#fff"/>
        <path id="Контур_16" data-name="Контур 16" d="M1059.55,625.94c-6.845,4.347-17.005,6.429-27.378,6.429-28.818,0-45.62-14.1-45.62-42.936v-37.75H970.164v-29.45h16.388V492.985h39.4v29.248h25.719v29.45h-25.719v37.335c0,8.3,4.771,12.86,11.818,12.86a21.537,21.537,0,0,0,12.031-3.528Z" fill="#fff"/>
        <path id="Контур_17" data-name="Контур 17" d="M1149.456,516.218v35.465a71.705,71.705,0,0,0-8.927-.617c-15.963,0-26.963,8.088-26.963,27.792V630.5h-39.408V518.088h37.548v13.476C1119.794,521.4,1132.856,516.218,1149.456,516.218Z" fill="#fff"/>
        <path id="Контур_18" data-name="Контур 18" d="M1268.955,568.071V630.5h-36.709V615.981c-5.6,10.788-16.8,16.388-33.181,16.388-26.963,0-41.9-15.144-41.9-34.636,0-20.745,15.145-33.6,49.993-33.6h22.393c-.616-11.4-8.29-17.834-23.849-17.834-10.787,0-22.818,3.731-30.491,9.746l-13.274-26.761c12.86-8.5,31.947-13.061,49.579-13.061C1248.007,516.218,1268.955,532.393,1268.955,568.071Zm-39.409,26.336v-9.746h-17c-12.648,0-17.217,4.56-17.217,11.4,0,6.642,5.4,11.414,14.73,11.414C1218.769,607.479,1226.443,603.324,1229.546,594.407Z" fill="#fff"/>
        <path id="Контур_19" data-name="Контур 19" d="M1370.043,625.94c-6.844,4.347-17.005,6.429-27.378,6.429-28.823,0-45.625-14.1-45.625-42.936v-37.75h-16.388v-29.45h16.388V492.985h39.408v29.248h25.719v29.45h-25.719v37.335c0,8.3,4.772,12.86,11.818,12.86a21.535,21.535,0,0,0,12.031-3.528Z" fill="#fff"/>
        <path id="Контур_20" data-name="Контур 20" d="M1501.066,518.088V630.5h-37.537V618.468c-8.5,9.332-20.534,13.9-33.393,13.9-27.59,0-47.709-15.771-47.709-51.438V518.088h39.409V574.5c0,17.419,6.844,24.263,18.672,24.263,11.617,0,21.15-7.673,21.15-26.548V518.088Z" fill="#fff"/>
        <path id="Контур_21" data-name="Контур 21" d="M1518.091,620.753l11.829-26.963c10.362,6.43,25.507,10.373,39.2,10.373,13.274,0,17.631-2.912,17.631-7.683,0-15.135-66.371,2.082-66.371-42.927,0-21.16,19.492-37.335,54.755-37.335,15.761,0,33.191,3.316,44.382,9.543l-11.818,26.751a65.917,65.917,0,0,0-32.352-8.29c-13.274,0-18.046,3.73-18.046,7.875,0,15.559,66.159-1.243,66.159,43.351,0,20.736-19.077,36.921-55.584,36.921C1548.8,632.369,1529.091,627.6,1518.091,620.753Z" fill="#fff"/>
      </g>
    </g>
    <path id="Контур_22" data-name="Контур 22" d="M1510.514,451.849a31.745,31.745,0,0,0-31.744-31.744,32.313,32.313,0,0,0-3.526.206,32.809,32.809,0,1,0-51.184,14.324,32.854,32.854,0,0,1-21.813-24.761A37.232,37.232,0,0,0,1405.3,483.3v.294h74.737v-.064A31.719,31.719,0,0,0,1510.514,451.849Z" fill="#fff"/>
  </g>
</svg>
